<?xml version="1.0" encoding="utf-8"?>
<!-- Generator: Adobe Illustrator 16.0.0, SVG Export Plug-In . SVG Version: 6.00 Build 0)  -->
<!DOCTYPE svg PUBLIC "-//W3C//DTD SVG 1.1//EN" "http://www.w3.org/Graphics/SVG/1.1/DTD/svg11.dtd">
<svg version="1.1" id="Layer_1" xmlns="http://www.w3.org/2000/svg" xmlns:xlink="http://www.w3.org/1999/xlink" x="0px" y="0px"
	 width="71.693px" height="69.075px" viewBox="0 0 71.693 69.075" enable-background="new 0 0 71.693 69.075" xml:space="preserve">
<g>
	<defs>
		<rect id="SVGID_1_" y="0" width="71.693" height="69.074"/>
	</defs>
	<clipPath id="SVGID_2_">
		<use xlink:href="#SVGID_1_"  overflow="visible"/>
	</clipPath>
	<path clip-path="url(#SVGID_2_)" d="M30.995,28.901c-0.497-0.611-1.175-1.031-1.916-1.215c-0.768-0.192-1.603-0.133-2.376,0.227
		c-0.208,0.096-0.402,0.211-0.582,0.34c-0.185,0.132-0.355,0.28-0.509,0.442c-5.097,4.596-7.405,11.65-5.922,18.424
		c0.787-1.101,1.86-2.017,3.171-2.626c0.123-0.057,9.958-4.644,9.969-4.653c0.001-0.009,0.002-0.021,0.002-0.041
		c0.002-0.03-1.063-9.246-1.171-9.62c-0.05-0.176-0.115-0.352-0.196-0.525C31.337,29.379,31.178,29.127,30.995,28.901"/>
	<path clip-path="url(#SVGID_2_)" d="M36.041,29.556c-0.731,0.289-1.336,0.809-1.736,1.459c-0.414,0.675-0.61,1.491-0.5,2.336
		c0.03,0.227,0.08,0.447,0.149,0.657c0.071,0.217,0.161,0.424,0.269,0.618c2.845,6.246,8.875,10.573,15.779,11.201
		c-0.809-1.083-1.36-2.382-1.546-3.815c-0.018-0.133-1.426-10.894-1.432-10.908c-0.007-0.004-0.02-0.008-0.037-0.014
		c-0.028-0.01-9.137-1.773-9.526-1.783c-0.184-0.004-0.371,0.004-0.56,0.029C36.6,29.373,36.312,29.449,36.041,29.556"/>
	<path clip-path="url(#SVGID_2_)" d="M30.14,23.796c0.427-0.663,0.615-1.436,0.56-2.198c-0.057-0.79-0.373-1.566-0.955-2.188
		c-0.157-0.169-0.325-0.318-0.504-0.448c-0.183-0.135-0.377-0.25-0.578-0.346C22.71,15.2,15.288,15.199,9.311,18.713
		c1.289,0.407,2.495,1.142,3.481,2.199c0.092,0.098,7.51,8.021,7.522,8.029c0.008-0.001,0.022-0.005,0.039-0.01
		c0.029-0.009,8.458-3.885,8.78-4.104c0.152-0.103,0.299-0.219,0.437-0.349C29.792,24.27,29.982,24.041,30.14,23.796"/>
	<path clip-path="url(#SVGID_2_)" d="M34.637,21.377c0.762,0.2,1.557,0.137,2.264-0.152c0.733-0.298,1.372-0.84,1.783-1.588
		c0.111-0.2,0.2-0.407,0.269-0.618c0.071-0.216,0.121-0.436,0.149-0.657C40.496,11.644,38.189,4.588,32.992,0
		c0.014,1.353-0.309,2.725-1.007,3.993c-0.065,0.117-5.289,9.631-5.292,9.645c0.003,0.006,0.01,0.019,0.022,0.034
		c0.016,0.025,6.321,6.83,6.629,7.068c0.147,0.113,0.302,0.216,0.469,0.307C34.078,21.194,34.355,21.303,34.637,21.377"/>
	<path clip-path="url(#SVGID_2_)" d="M38.339,24.992c0.048,0.786,0.354,1.522,0.848,2.104c0.512,0.604,1.227,1.042,2.064,1.202
		c0.226,0.042,0.449,0.062,0.671,0.063c0.227,0,0.452-0.022,0.671-0.063c6.82-0.763,12.809-5.148,15.552-11.515
		c-1.28,0.433-2.686,0.553-4.106,0.283c-0.133-0.025-10.799-2.033-10.813-2.031c-0.005,0.005-0.014,0.016-0.025,0.03
		c-0.018,0.025-4.525,8.134-4.656,8.5c-0.062,0.173-0.111,0.354-0.146,0.539C38.339,24.404,38.321,24.701,38.339,24.992"/>
	<polygon clip-path="url(#SVGID_2_)" points="0,61.917 1.262,61.917 1.262,57.892 4.426,57.892 4.426,56.928 1.262,56.928 
		1.262,53.833 4.975,53.833 4.975,52.863 0,52.863 	"/>
	<path clip-path="url(#SVGID_2_)" d="M7.828,52.863l-2.717,9.054h1.313l0.651-2.288H9.78l0.654,2.288h1.312l-2.694-9.054H7.828z
		 M7.361,58.628l1.058-3.683h0.039L9.5,58.628H7.361z"/>
	<path clip-path="url(#SVGID_2_)" d="M15.645,56.879c-0.618-0.228-1.057-0.469-1.319-0.727c-0.261-0.257-0.391-0.583-0.391-0.977
		c0-0.423,0.123-0.774,0.369-1.058c0.247-0.282,0.595-0.423,1.042-0.423c0.461,0,0.831,0.164,1.113,0.491
		c0.282,0.328,0.422,0.756,0.422,1.286h1.214l0.013-0.035c0.016-0.775-0.23-1.422-0.734-1.937c-0.506-0.512-1.177-0.768-2.015-0.768
		c-0.788,0-1.433,0.231-1.939,0.691c-0.503,0.463-0.754,1.051-0.754,1.767c0,0.692,0.229,1.251,0.684,1.67
		c0.455,0.418,1.109,0.759,1.96,1.024c0.596,0.223,1.013,0.465,1.249,0.731c0.235,0.268,0.353,0.609,0.353,1.023
		c0,0.444-0.132,0.796-0.398,1.061c-0.264,0.263-0.631,0.394-1.099,0.394c-0.481,0-0.884-0.152-1.21-0.452
		c-0.326-0.304-0.489-0.761-0.489-1.376h-1.218l-0.012,0.038c-0.022,0.882,0.263,1.562,0.852,2.031
		c0.588,0.474,1.281,0.71,2.077,0.71c0.824,0,1.49-0.218,1.999-0.653c0.507-0.439,0.761-1.027,0.761-1.765
		c0-0.694-0.215-1.255-0.647-1.69C17.099,57.501,16.47,57.149,15.645,56.879"/>
	<polygon clip-path="url(#SVGID_2_)" points="24.393,56.962 20.849,56.962 20.849,52.863 19.586,52.863 19.586,61.917 
		20.849,61.917 20.849,57.925 24.393,57.925 24.393,61.917 25.656,61.917 25.656,52.863 24.393,52.863 	"/>
	<rect x="27.496" y="52.863" clip-path="url(#SVGID_2_)" width="1.262" height="9.054"/>
	<path clip-path="url(#SVGID_2_)" d="M33.49,52.733c-0.959,0-1.721,0.304-2.288,0.908c-0.569,0.605-0.854,1.441-0.854,2.512v2.488
		c0,1.072,0.285,1.909,0.854,2.506c0.567,0.6,1.333,0.899,2.294,0.899c0.974,0,1.751-0.3,2.332-0.899
		c0.579-0.597,0.869-1.434,0.869-2.506v-2.488c0-1.076-0.29-1.914-0.873-2.515C35.242,53.034,34.464,52.733,33.49,52.733
		 M35.442,58.641c0,0.798-0.168,1.402-0.503,1.811c-0.336,0.408-0.816,0.612-1.443,0.612c-0.606,0-1.072-0.204-1.4-0.615
		c-0.327-0.412-0.491-1.012-0.491-1.808v-2.508c0-0.789,0.162-1.386,0.488-1.792c0.326-0.408,0.79-0.612,1.397-0.612
		c0.626,0,1.107,0.204,1.445,0.612c0.338,0.406,0.507,1.003,0.507,1.792V58.641z"/>
	<polygon clip-path="url(#SVGID_2_)" points="42.984,59.515 42.947,59.523 39.441,52.863 38.178,52.863 38.178,61.917 
		39.441,61.917 39.441,55.25 39.478,55.238 42.984,61.917 44.253,61.917 44.253,52.863 42.984,52.863 	"/>
	<path clip-path="url(#SVGID_2_)" d="M48.955,56.879c-0.617-0.228-1.058-0.469-1.319-0.727c-0.262-0.257-0.393-0.583-0.393-0.977
		c0-0.423,0.124-0.774,0.371-1.058c0.246-0.282,0.593-0.423,1.04-0.423c0.462,0,0.832,0.164,1.114,0.491
		c0.281,0.328,0.423,0.756,0.423,1.286h1.213l0.013-0.035c0.016-0.775-0.229-1.422-0.734-1.937
		c-0.506-0.512-1.178-0.768-2.014-0.768c-0.789,0-1.435,0.231-1.938,0.691c-0.503,0.463-0.754,1.051-0.754,1.767
		c0,0.692,0.227,1.251,0.684,1.67c0.455,0.418,1.108,0.759,1.958,1.024c0.598,0.223,1.014,0.465,1.249,0.731
		c0.236,0.268,0.355,0.609,0.355,1.023c0,0.444-0.133,0.796-0.398,1.061c-0.265,0.263-0.632,0.394-1.101,0.394
		c-0.48,0-0.884-0.152-1.209-0.452c-0.325-0.304-0.49-0.761-0.49-1.376h-1.217l-0.013,0.038c-0.021,0.882,0.263,1.562,0.852,2.031
		c0.588,0.474,1.28,0.71,2.077,0.71c0.824,0,1.491-0.218,1.999-0.653c0.507-0.439,0.763-1.027,0.763-1.765
		c0-0.694-0.216-1.255-0.647-1.69C50.406,57.501,49.778,57.149,48.955,56.879"/>
	<polygon clip-path="url(#SVGID_2_)" points="58.312,52.863 52.262,52.863 52.262,53.833 54.643,53.833 54.643,61.917 
		55.912,61.917 55.912,53.833 58.312,53.833 	"/>
	<path clip-path="url(#SVGID_2_)" d="M60.955,52.863l-2.718,9.054h1.312l0.654-2.288h2.703l0.653,2.288h1.311l-2.691-9.054H60.955z
		 M60.487,58.628l1.058-3.683h0.038l1.044,3.683H60.487z"/>
	<path clip-path="url(#SVGID_2_)" d="M71.408,61.21c-0.057-0.24-0.081-0.5-0.081-0.777v-0.788c0-0.538-0.104-0.991-0.309-1.357
		c-0.205-0.365-0.541-0.625-1.005-0.782c0.416-0.195,0.733-0.474,0.954-0.824c0.222-0.355,0.334-0.77,0.334-1.242
		c0-0.829-0.237-1.463-0.712-1.907c-0.476-0.446-1.147-0.667-2.019-0.667h-2.666v9.049h1.261v-3.899h1.561
		c0.415,0,0.739,0.146,0.973,0.442c0.235,0.291,0.353,0.693,0.353,1.2v0.764c0,0.299,0.021,0.587,0.064,0.869
		c0.044,0.277,0.137,0.487,0.277,0.624h1.3v-0.143C71.556,61.636,71.461,61.451,71.408,61.21 M69.665,56.636
		c-0.247,0.277-0.634,0.415-1.156,0.415h-1.343v-3.221h1.405c0.494,0,0.861,0.142,1.104,0.43c0.243,0.285,0.363,0.688,0.363,1.205
		C70.038,55.972,69.915,56.362,69.665,56.636"/>
	<g clip-path="url(#SVGID_2_)">
		<text transform="matrix(1 0 0 1 15.418 67.9282)"><tspan x="0" y="0" font-family="'Roboto-Bold'" font-size="4.2314">BEAUTIFUL CU</tspan><tspan x="28.583" y="0" font-family="'Roboto-Bold'" font-size="4.2314">L</tspan><tspan x="30.494" y="0" font-family="'Roboto-Bold'" font-size="4.2314">TURE</tspan></text>
	</g>
</g>
</svg>
