<?xml version="1.0" encoding="utf-8"?>
<!-- Generator: Adobe Illustrator 16.0.0, SVG Export Plug-In . SVG Version: 6.00 Build 0)  -->
<!DOCTYPE svg PUBLIC "-//W3C//DTD SVG 1.1//EN" "http://www.w3.org/Graphics/SVG/1.1/DTD/svg11.dtd">
<svg version="1.1" id="Layer_1" xmlns="http://www.w3.org/2000/svg" xmlns:xlink="http://www.w3.org/1999/xlink" x="0px" y="0px"
	 width="102.032px" height="115.403px" viewBox="0 0 102.032 115.403" enable-background="new 0 0 102.032 115.403"
	 xml:space="preserve">
<g>
	<defs>
		<rect id="SVGID_1_" x="5.001" width="601.699" height="115.403"/>
	</defs>
	<clipPath id="SVGID_2_">
		<use xlink:href="#SVGID_1_"  overflow="visible"/>
	</clipPath>
	<path clip-path="url(#SVGID_2_)" d="M202.282,90.843h-56.164c-10.088,0-18.295-8.04-18.295-17.918v-55.01
		C127.823,8.035,136.03,0,146.118,0h56.164c10.094,0,18.299,8.035,18.299,17.916v55.01
		C220.581,82.803,212.376,90.843,202.282,90.843 M146.118,2.095c-8.902,0-16.154,7.104-16.154,15.821v55.01
		c0,8.722,7.252,15.816,16.154,15.816h56.164c8.906,0,16.152-7.095,16.152-15.816v-55.01c0-8.717-7.246-15.821-16.152-15.821
		H146.118z"/>
	<path clip-path="url(#SVGID_2_)" d="M329.347,90.843h-56.16c-10.082,0-18.303-8.04-18.303-17.918v-55.01
		C254.884,8.035,263.104,0,273.187,0h56.16c10.094,0,18.307,8.035,18.307,17.916v55.01C347.653,82.803,339.44,90.843,329.347,90.843
		 M273.187,2.095c-8.902,0-16.148,7.104-16.148,15.821v55.01c0,8.722,7.246,15.816,16.148,15.816h56.16
		c8.9,0,16.16-7.095,16.16-15.816v-55.01c0-8.717-7.26-15.821-16.16-15.821H273.187z"/>
	<path clip-path="url(#SVGID_2_)" d="M338.708,50.774c-7.357-3.36-14.635-5.399-21.611-6.554v-13.2l3.203,3.372l2.262-2.076
		l-7.014-7.399l-7.023,7.399l2.277,2.076l3.191-3.356v12.759c-3.852-0.495-7.584-0.742-11.178-0.761V20.833l3.195,3.362l2.279-2.075
		l-7.021-7.398l-7.016,7.398l2.264,2.075l3.209-3.362v22.208c-3.965,0.109-7.711,0.453-11.197,0.935v-12.96l3.215,3.377l2.27-2.076
		l-7.021-7.399l-7.021,7.399l2.279,2.076l3.209-3.377V44.47c-12.545,2.163-20.936,5.98-21.65,6.304
		c-1.104,0.531-1.584,1.843-1.047,2.931c0.545,1.09,1.881,1.512,2.992,1.033c0.162-0.076,7.914-3.602,19.705-5.717v7.086
		l1.539,0.044l0.709,0.04v-0.023l0.822,0.023v-7.682c3.465-0.512,7.227-0.859,11.197-0.98v8.578l1.543,0.044l0.715,0.04v-0.023
		l0.832,0.023v-8.684c3.594,0.009,7.33,0.256,11.178,0.766v7.834l1.547,0.044l0.711,0.04v-0.028l0.846,0.028v-7.506
		c6.404,1.092,13.059,3.006,19.727,6.053c0.297,0.145,0.627,0.208,0.943,0.208c0.848,0,1.637-0.468,2.014-1.263
		C340.319,52.585,339.821,51.283,338.708,50.774"/>
	<path clip-path="url(#SVGID_2_)" d="M301.282,68.915c-2.424,0-4.418,1.932-4.418,4.306c0,2.38,1.994,4.32,4.418,4.32
		s4.396-1.94,4.396-4.32C305.679,70.846,303.706,68.915,301.282,68.915"/>
	<path clip-path="url(#SVGID_2_)" d="M317.306,72.884c-2.24,0-4.066,1.783-4.066,3.968c0,2.194,1.826,3.979,4.066,3.979
		c2.234,0,4.049-1.784,4.049-3.979C321.354,74.667,319.54,72.884,317.306,72.884"/>
	<path clip-path="url(#SVGID_2_)" d="M315.745,65.242c0-1.803-1.5-3.271-3.344-3.271c-1.846,0-3.359,1.469-3.359,3.271
		c0,1.808,1.514,3.276,3.359,3.276C314.245,68.518,315.745,67.049,315.745,65.242"/>
	<path clip-path="url(#SVGID_2_)" d="M285.243,72.884c-2.24,0-4.059,1.783-4.059,3.968c0,2.194,1.818,3.979,4.059,3.979
		c2.229,0,4.063-1.784,4.063-3.979C289.306,74.667,287.472,72.884,285.243,72.884"/>
	<path clip-path="url(#SVGID_2_)" d="M290.151,61.969c-1.848,0-3.355,1.47-3.355,3.272c0,1.808,1.508,3.276,3.355,3.276
		c1.84,0,3.346-1.469,3.346-3.276C293.497,63.439,291.991,61.969,290.151,61.969"/>
	<path clip-path="url(#SVGID_2_)" d="M275.974,65.297c-2.428,0-4.414,1.927-4.414,4.297c0,2.377,1.986,4.312,4.414,4.312
		c2.424,0,4.393-1.935,4.393-4.312C280.366,67.224,278.397,65.297,275.974,65.297"/>
	<path clip-path="url(#SVGID_2_)" d="M326.548,65.297c-2.42,0-4.396,1.927-4.396,4.297c0,2.377,1.977,4.312,4.396,4.312
		c2.422,0,4.398-1.935,4.398-4.312C330.946,67.224,328.97,65.297,326.548,65.297"/>
	<path clip-path="url(#SVGID_2_)" d="M199.589,57.796l-4.52-2.564l3.418-0.959c0.879-0.258,1.395-1.163,1.145-2.043
		c-0.266-0.865-1.145-1.332-2.082-1.116l-6.527,1.825l-4.088-2.322l6.094-1.698c0.881-0.245,1.396-1.165,1.15-2.039
		c-0.27-0.872-1.15-1.359-2.09-1.128l-9.186,2.579l-5.5-3.12l13.678-7.686l6.498,1.975c0.166,0.05,0.332,0.072,0.5,0.072
		c0.715,0,1.371-0.454,1.609-1.165c0.273-0.863-0.238-1.781-1.111-2.05l-3.52-1.064l4.574-2.571
		c0.813-0.443,1.086-1.447,0.617-2.239c-0.467-0.802-1.5-1.069-2.287-0.609l-4.416,2.484l0.838-3.135
		c0.232-0.883-0.291-1.783-1.191-2.008c-0.99-0.214-1.816,0.299-2.047,1.163l-1.676,6.274l-13.748,7.727v-6.199l6.982-6.516
		c0.68-0.621,0.695-1.658,0.057-2.328c-0.652-0.634-1.709-0.687-2.379-0.043l-4.66,4.349v-4.931l4.975-4.26
		c0.715-0.59,0.771-1.627,0.16-2.308c-0.582-0.68-1.648-0.745-2.35-0.16l-2.785,2.375V17.66c0-0.908-0.775-1.644-1.686-1.644
		c-0.928,0-1.68,0.736-1.68,1.644v4.518l-2.434-2.21c-0.68-0.613-1.754-0.577-2.367,0.085c-0.633,0.66-0.596,1.702,0.084,2.315
		l4.717,4.306v4.853l-4.334-4.19c-0.654-0.634-1.729-0.654-2.363,0.022c-0.656,0.643-0.656,1.679,0.014,2.306l6.684,6.471v6.214
		l-14.332-8.139l-0.824-5.82c-0.15-0.904-1-1.417-1.902-1.407c-0.914,0.141-1.561,0.962-1.436,1.855l0.463,3.275l-3.809-2.164
		c-0.793-0.453-1.834-0.195-2.303,0.596c-0.467,0.791-0.182,1.785,0.611,2.244l3.857,2.193l-3.285,1.341
		c-0.861,0.356-1.271,1.308-0.918,2.149c0.281,0.629,0.896,1.01,1.561,1.01c0.211,0,0.434-0.032,0.643-0.123l5.656-2.304
		l14.354,8.146l-5.52,3.103l-9.084-2.374c-0.85-0.241-1.814,0.282-2.041,1.162c-0.254,0.875,0.281,1.766,1.174,2.001l5.826,1.525
		l-4.404,2.478l-6.057-1.716c-0.889-0.239-1.826,0.261-2.08,1.127c-0.25,0.872,0.26,1.779,1.141,2.043l2.943,0.822l-3.83,2.153
		c-0.805,0.45-1.086,1.45-0.613,2.236c0.295,0.536,0.865,0.835,1.445,0.835c0.289,0,0.564-0.071,0.828-0.223l4.145-2.329
		l-0.674,3.673c-0.154,0.896,0.451,1.75,1.373,1.909c0.102,0.014,0.197,0.019,0.287,0.019c0.801,0,1.498-0.555,1.654-1.354
		l1.17-6.383l4.484-2.528l-1.521,6.25c-0.219,0.888,0.35,1.771,1.24,1.977c0.137,0.039,0.258,0.048,0.395,0.048
		c0.752,0,1.447-0.504,1.623-1.264l2.258-9.249l5.502-3.093v15.77l-4.684,4.287c-0.678,0.618-0.713,1.653-0.078,2.324
		c0.328,0.343,0.766,0.518,1.225,0.518c0.4,0,0.82-0.149,1.146-0.445l2.391-2.189v4.871c0,0.899,0.752,1.649,1.68,1.649
		c0.91,0,1.686-0.75,1.686-1.649v-5.052l2.756,2.384c0.73,0.608,1.76,0.53,2.377-0.149c0.607-0.686,0.543-1.722-0.158-2.331
		l-4.975-4.275V48.057l5.43,3.08l2.318,9.195c0.184,0.741,0.867,1.253,1.621,1.253c0.131,0,0.271-0.009,0.412-0.052
		c0.893-0.221,1.445-1.113,1.227-1.992l-1.541-6.118l4.156,2.359l1.715,6.518c0.201,0.744,0.881,1.24,1.627,1.24
		c0.133,0,0.273-0.023,0.406-0.054c0.906-0.235,1.445-1.122,1.223-2.001l-0.889-3.384l4.475,2.539
		c0.262,0.151,0.561,0.229,0.848,0.229c0.582,0,1.133-0.293,1.447-0.817C200.657,59.259,200.39,58.259,199.589,57.796"/>
	<path clip-path="url(#SVGID_2_)" d="M455.991,90.843h-56.158c-10.096,0-18.301-8.04-18.301-17.918v-55.01
		C381.532,8.035,389.737,0,399.833,0h56.158c10.092,0,18.303,8.035,18.303,17.916v55.01
		C474.294,82.803,466.083,90.843,455.991,90.843 M399.833,2.095c-8.91,0-16.154,7.104-16.154,15.821v55.01
		c0,8.722,7.244,15.816,16.154,15.816h56.158c8.912,0,16.154-7.095,16.154-15.816v-55.01c0-8.717-7.242-15.821-16.154-15.821
		H399.833z"/>
	<path clip-path="url(#SVGID_2_)" d="M465.345,67.107c-37.563-17.171-73.377-0.69-74.902,0c-1.109,0.537-1.576,1.846-1.041,2.938
		c0.531,1.083,1.865,1.504,2.99,1.025c0.34-0.163,35.391-16.301,71.064,0c0.303,0.147,0.629,0.203,0.945,0.203
		c0.85,0,1.645-0.463,2.025-1.26C466.95,68.915,466.456,67.615,465.345,67.107"/>
	<path clip-path="url(#SVGID_2_)" d="M420.448,34.257c4.744,0,7.447-3.001,7.447-8.206V15.735l5.91,17.628l0.195,0.621h3.756
		l6.832-18.717h-4.324l-3.146,8.96c-0.428,1.221-0.789,2.315-1.1,3.31c-0.313-0.995-0.654-2.089-1.025-3.31l-2.896-8.96h-4.201
		h-0.152h-3.908v10.95c0,2.967-1.117,4.475-3.295,4.475c-2.57,0-3.123-2.434-3.123-4.475v-10.95h-4.076v10.865
		C413.341,33.207,417.806,34.257,420.448,34.257"/>
	<path clip-path="url(#SVGID_2_)" d="M413.632,47.757l-0.166-4.576l13.865,13.572c0.285,0.284,0.676,0.441,1.094,0.441
		c0.402,0,0.803-0.157,1.088-0.441l13.74-13.441l-0.166,4.582l3.107,0.111l0.361-10.092l-10.293,0.369l0.113,3.045l4.688-0.175
		l-12.639,12.366l-12.766-12.49l4.676,0.166l0.113-3.048l-10.299-0.359l0.379,10.075L413.632,47.757z"/>
	<path clip-path="url(#SVGID_2_)" d="M383.774,101.045v6.051c0,2.034,0.863,2.972,2.17,2.972c1.396,0,2.229-0.938,2.229-2.972
		v-6.051h1.936v5.928c0,3.203-1.682,4.619-4.229,4.619c-2.453,0-4.039-1.339-4.039-4.605v-5.941H383.774z"/>
	<path clip-path="url(#SVGID_2_)" d="M394.753,111.422l-3.428-10.377h2.105l1.447,4.728c0.406,1.31,0.768,2.51,1.035,3.771h0.033
		c0.283-1.232,0.676-2.494,1.084-3.758l1.541-4.741h2.061l-3.662,10.377H394.753z"/>
	<path clip-path="url(#SVGID_2_)" d="M405.038,101.184c0.707-0.122,1.666-0.215,2.955-0.215c1.416,0,2.439,0.292,3.113,0.848
		c0.629,0.507,1.039,1.324,1.039,2.294c0,0.982-0.314,1.784-0.895,2.337c-0.787,0.757-1.982,1.126-3.35,1.126
		c-0.361,0-0.676-0.016-0.943-0.077v3.926h-1.92V101.184z M406.958,106.004c0.248,0.077,0.549,0.091,0.943,0.091
		c1.447,0,2.328-0.707,2.328-1.908c0-1.154-0.82-1.757-2.158-1.757c-0.531,0-0.91,0.047-1.113,0.096V106.004z"/>
	<path clip-path="url(#SVGID_2_)" d="M413.563,106.341c0-1.017-0.016-1.755-0.064-2.417h1.668l0.08,1.416h0.045
		c0.377-1.046,1.273-1.586,2.107-1.586c0.189,0,0.299,0.017,0.455,0.048v1.77c-0.174-0.029-0.344-0.046-0.58-0.046
		c-0.91,0-1.557,0.569-1.73,1.432c-0.033,0.17-0.045,0.369-0.045,0.568v3.896h-1.936V106.341z"/>
	<path clip-path="url(#SVGID_2_)" d="M426.317,107.603c0,2.757-1.982,3.989-3.932,3.989c-2.154,0-3.834-1.447-3.834-3.864
		c0-2.465,1.648-3.974,3.959-3.974C424.792,103.754,426.317,105.325,426.317,107.603 M420.546,107.68c0,1.45,0.74,2.542,1.902,2.542
		c1.102,0,1.871-1.047,1.871-2.571c0-1.171-0.533-2.525-1.854-2.525C421.095,105.125,420.546,106.434,420.546,107.68"/>
	<path clip-path="url(#SVGID_2_)" d="M430.124,102v1.925h1.84v1.416h-1.84v3.31c0,0.924,0.252,1.386,0.99,1.386
		c0.344,0,0.535-0.014,0.756-0.076l0.031,1.431c-0.285,0.109-0.803,0.202-1.4,0.202c-0.721,0-1.305-0.231-1.666-0.616
		c-0.426-0.433-0.613-1.126-0.613-2.108v-3.527h-1.082v-1.416h1.082v-1.399L430.124,102z"/>
	<path clip-path="url(#SVGID_2_)" d="M434.702,108.206c0.047,1.354,1.115,1.939,2.359,1.939c0.896,0,1.525-0.141,2.121-0.34
		l0.285,1.296c-0.662,0.276-1.574,0.476-2.674,0.476c-2.484,0-3.947-1.495-3.947-3.788c0-2.079,1.289-4.034,3.742-4.034
		c2.484,0,3.301,2.003,3.301,3.649c0,0.354-0.029,0.63-0.061,0.802H434.702z M438.065,106.88c0.018-0.692-0.297-1.832-1.586-1.832
		c-1.193,0-1.699,1.062-1.777,1.832H438.065z"/>
	<path clip-path="url(#SVGID_2_)" d="M447.077,111.191c-0.406,0.188-1.209,0.386-2.17,0.386c-2.387,0-3.945-1.509-3.945-3.833
		c0-2.249,1.572-3.989,4.262-3.989c0.707,0,1.432,0.154,1.871,0.338l-0.344,1.434c-0.316-0.153-0.773-0.292-1.463-0.292
		c-1.48,0-2.359,1.062-2.344,2.433c0,1.538,1.021,2.415,2.344,2.415c0.658,0,1.146-0.136,1.523-0.29L447.077,111.191z"/>
	<path clip-path="url(#SVGID_2_)" d="M450.95,102v1.925h1.836v1.416h-1.836v3.31c0,0.924,0.25,1.386,0.99,1.386
		c0.344,0,0.533-0.014,0.754-0.076l0.033,1.431c-0.285,0.109-0.803,0.202-1.402,0.202c-0.723,0-1.305-0.231-1.666-0.616
		c-0.426-0.433-0.611-1.126-0.611-2.108v-3.527h-1.086v-1.416h1.086v-1.399L450.95,102z"/>
	<path clip-path="url(#SVGID_2_)" d="M456.313,101.832c0,0.553-0.424,1.015-1.102,1.015c-0.643,0-1.07-0.462-1.07-1.015
		c0-0.584,0.443-1.032,1.09-1.032C455.89,100.799,456.298,101.248,456.313,101.832 M454.253,103.924h1.934v7.497h-1.934V103.924z"/>
	<path clip-path="url(#SVGID_2_)" d="M465.56,107.603c0,2.757-1.982,3.989-3.932,3.989c-2.152,0-3.836-1.447-3.836-3.864
		c0-2.465,1.652-3.974,3.961-3.974C464.034,103.754,465.56,105.325,465.56,107.603 M459.788,107.68c0,1.45,0.738,2.542,1.904,2.542
		c1.102,0,1.869-1.047,1.869-2.571c0-1.171-0.533-2.525-1.855-2.525C460.341,105.125,459.788,106.434,459.788,107.68"/>
	<path clip-path="url(#SVGID_2_)" d="M467.151,106.158c0-0.862-0.031-1.585-0.063-2.233h1.682l0.094,1.124h0.049
		c0.344-0.585,1.178-1.294,2.451-1.294c1.338,0,2.721,0.848,2.721,3.219v4.449h-1.934v-4.233c0-1.078-0.408-1.894-1.463-1.894
		c-0.77,0-1.305,0.536-1.51,1.107c-0.063,0.154-0.092,0.385-0.092,0.603v4.417h-1.936V106.158z"/>
	<path clip-path="url(#SVGID_2_)" d="M455.985,90.843h-56.158c-10.096,0-18.301-8.04-18.301-17.918v-55.01
		C381.526,8.035,389.731,0,399.827,0h56.158c10.092,0,18.303,8.035,18.303,17.916v55.01
		C474.288,82.803,466.077,90.843,455.985,90.843 M399.827,2.095c-8.91,0-16.156,7.104-16.156,15.821v55.01
		c0,8.722,7.246,15.816,16.156,15.816h56.158c8.91,0,16.154-7.095,16.154-15.816v-55.01c0-8.717-7.244-15.821-16.154-15.821H399.827
		z"/>
	<path clip-path="url(#SVGID_2_)" d="M465.339,67.107c-37.563-17.171-73.377-0.69-74.902,0c-1.109,0.537-1.578,1.846-1.041,2.938
		c0.531,1.083,1.865,1.504,2.99,1.025c0.338-0.163,35.391-16.301,71.064,0c0.303,0.147,0.629,0.203,0.945,0.203
		c0.85,0,1.645-0.463,2.025-1.26C466.942,68.915,466.45,67.615,465.339,67.107"/>
	<path clip-path="url(#SVGID_2_)" d="M420.442,34.257c4.744,0,7.447-3.001,7.447-8.206V15.735l5.91,17.628l0.195,0.621h3.756
		l6.832-18.717h-4.324l-3.146,8.96c-0.428,1.221-0.789,2.315-1.1,3.31c-0.313-0.995-0.654-2.089-1.025-3.31l-2.896-8.96h-4.201
		h-0.152h-3.908v10.95c0,2.967-1.117,4.475-3.293,4.475c-2.572,0-3.125-2.434-3.125-4.475v-10.95h-4.076v10.865
		C413.335,33.207,417.8,34.257,420.442,34.257"/>
	<path clip-path="url(#SVGID_2_)" d="M413.624,47.757l-0.164-4.576l13.865,13.572c0.283,0.284,0.676,0.441,1.092,0.441
		c0.404,0,0.805-0.157,1.09-0.441l13.74-13.441l-0.166,4.582l3.107,0.111l0.361-10.092l-10.293,0.369l0.113,3.045l4.688-0.175
		l-12.641,12.366l-12.766-12.49l4.678,0.166l0.113-3.048l-10.299-0.359l0.377,10.075L413.624,47.757z"/>
	<path clip-path="url(#SVGID_2_)" d="M29.174,67.806c-1.204,0-1.95-0.057-2.06-0.063c-0.201-0.014-0.394-0.114-0.51-0.274
		c-0.132-0.161-0.169-0.362-0.135-0.557c0.908-4.559,4.932-10.048,5.099-10.28c6.877-8.561,16.776-11.219,21.229-12.184
		c-0.302-0.077-0.588-0.152-0.84-0.212c-1.11-0.275-1.759-0.439-2.051-0.583c-0.237-0.115-0.442-0.453-0.451-0.71
		c-0.041-1.429,4.936-6.62,10.686-9.852c6.663-3.74,12.201-0.955,12.429-0.835c0.348,0.175,0.477,0.6,0.294,0.938
		c-0.182,0.342-0.608,0.481-0.962,0.296c-0.201-0.104-5.094-2.539-11.044,0.803c-5.102,2.871-8.86,6.837-9.771,8.283
		c0.354,0.088,0.827,0.201,1.207,0.303c2.919,0.707,3.676,0.918,3.676,1.694c0,0.645-0.441,0.73-1.751,0.996
		c-3.532,0.725-14.315,2.945-21.51,11.901c-0.026,0.033-3.513,4.807-4.645,8.919c2.555,0.057,10.399-0.022,17.471-3.163
		C62.153,55.86,71.763,48.855,74.046,42.41c0.825-2.325,0.684-4.506-0.455-6.651c-0.175-0.34-0.041-0.767,0.306-0.942
		c0.353-0.179,0.783-0.042,0.968,0.299c1.3,2.473,1.486,5.081,0.53,7.753c-3.65,10.283-22.936,18.82-29.271,21.626
		C39.581,67.396,32.569,67.806,29.174,67.806"/>
	<path clip-path="url(#SVGID_2_)" d="M37.125,63.123c-0.257,0-0.518-0.14-0.636-0.377c-0.174-0.35-0.042-0.767,0.311-0.942
		c0.367-0.18,36.559-18.226,38.083-38.122c0.022-0.377,0.302-0.683,0.759-0.638c0.393,0.019,0.689,0.365,0.656,0.743
		c-1.58,20.684-37.329,38.515-38.864,39.271C37.338,63.104,37.236,63.123,37.125,63.123"/>
	<path clip-path="url(#SVGID_2_)" d="M73.654,34.088c1.884-3.291,3.184-6.719,3.457-10.244c0.054-0.814-0.556-1.512-1.537-1.597
		c-0.819,0-1.443,0.582-1.507,1.368c-0.191,2.542-1.008,5.056-2.225,7.503c-1-0.357-2.543-0.759-4.538-0.759
		c-2.599,0-5.151,0.692-7.562,2.054c-5.455,3.05-11.146,8.484-11.099,10.572c0.026,0.47,0.357,1.124,0.899,1.368
		c0.034,0.018,0.073,0.041,0.109,0.056c-7.955,2.22-14.244,6.171-18.716,11.743c-0.048,0.051-4.293,5.77-5.257,10.613
		c-0.087,0.423,0.01,0.851,0.265,1.149c0.246,0.356,0.674,0.583,1.079,0.604c0.114,0.021,0.899,0.078,2.145,0.078
		c3.611,0,10.645-0.44,17.279-3.376c6.417-2.837,25.942-11.49,29.704-22.089c1.02-2.879,0.832-5.702-0.578-8.381
		C75.21,34.07,74.271,33.853,73.654,34.088 M73.286,42.155c-2.212,6.221-11.66,13.078-28.092,20.36
		c-5.995,2.652-12.57,3.078-16.043,3.084c1.304-3.667,4.16-7.6,4.183-7.637c7.015-8.731,17.572-10.905,21.085-11.622
		c1.315-0.281,2.363-0.497,2.363-1.767c0-1.411-1.163-1.693-4.298-2.463l-0.038-0.017c1.507-1.793,4.776-4.837,8.805-7.111
		c1.954-1.095,3.996-1.651,6.061-1.651c1.279,0,2.308,0.212,3.056,0.431c-9.269,14.779-32.714,26.734-33.935,27.339
		c-0.354,0.176-0.634,0.483-0.759,0.865c-0.125,0.379-0.091,0.779,0.109,1.147c0.257,0.498,0.774,0.812,1.347,0.812
		c0.224,0,0.47-0.068,0.684-0.164c1.225-0.604,24.92-12.479,34.932-28.093c0.021,0.154,0.048,0.309,0.124,0.458
		C73.905,38.068,74.042,40.036,73.286,42.155"/>
	<path clip-path="url(#SVGID_2_)" d="M79.457,90.843H23.299C13.205,90.843,5,82.803,5,72.925v-55.01C5,8.035,13.205,0,23.299,0
		h56.158c10.092,0,18.306,8.035,18.306,17.916v55.01C97.763,82.803,89.549,90.843,79.457,90.843 M23.299,2.095
		c-8.905,0-16.152,7.104-16.152,15.821v55.01c0,8.722,7.247,15.816,16.152,15.816h56.158c8.909,0,16.153-7.095,16.153-15.816v-55.01
		c0-8.717-7.244-15.821-16.153-15.821H23.299z"/>
	<polygon clip-path="url(#SVGID_2_)" points="9.211,101.045 11.146,101.045 11.146,109.836 15.501,109.836 15.501,111.422 
		9.211,111.422 	"/>
	<path clip-path="url(#SVGID_2_)" d="M18.947,101.832c0,0.553-0.426,1.015-1.101,1.015c-0.646,0-1.069-0.462-1.069-1.015
		c0-0.584,0.439-1.032,1.082-1.032C18.521,100.799,18.929,101.248,18.947,101.832 M16.887,103.924h1.934v7.497h-1.934V103.924z"/>
	<path clip-path="url(#SVGID_2_)" d="M27.849,110.331c0,1.567-0.331,2.693-1.134,3.402c-0.786,0.693-1.901,0.906-2.956,0.906
		c-0.975,0-2.012-0.213-2.672-0.599l0.424-1.432c0.487,0.276,1.304,0.569,2.234,0.569c1.258,0,2.199-0.646,2.199-2.264v-0.647
		h-0.029c-0.442,0.661-1.213,1.11-2.234,1.11c-1.902,0-3.253-1.541-3.253-3.665c0-2.465,1.633-3.958,3.474-3.958
		c1.181,0,1.856,0.556,2.217,1.172h0.032l0.078-1.002h1.68c-0.029,0.508-0.06,1.124-0.06,2.157V110.331z M25.915,106.928
		c0-0.186-0.02-0.355-0.065-0.51c-0.204-0.693-0.754-1.216-1.573-1.216c-1.082,0-1.885,0.924-1.885,2.448
		c0,1.277,0.659,2.309,1.871,2.309c0.722,0,1.351-0.463,1.573-1.155c0.06-0.184,0.079-0.444,0.079-0.662V106.928z"/>
	<path clip-path="url(#SVGID_2_)" d="M29.926,100.491h1.934v4.449h0.032c0.236-0.354,0.565-0.646,0.958-0.848
		c0.394-0.213,0.852-0.338,1.337-0.338c1.305,0,2.674,0.848,2.674,3.251v4.417h-1.934v-4.218c0-1.078-0.409-1.909-1.479-1.909
		c-0.755,0-1.289,0.491-1.51,1.063c-0.062,0.167-0.078,0.369-0.078,0.569v4.495h-1.934V100.491z"/>
	<path clip-path="url(#SVGID_2_)" d="M41.076,102v1.925h1.841v1.416h-1.841v3.31c0,0.924,0.252,1.386,0.989,1.386
		c0.348,0,0.536-0.014,0.756-0.076l0.03,1.431c-0.282,0.109-0.8,0.202-1.396,0.202c-0.725,0-1.305-0.231-1.668-0.616
		c-0.424-0.433-0.613-1.126-0.613-2.108v-3.527h-1.085v-1.416h1.085v-1.399L41.076,102z"/>
	<path clip-path="url(#SVGID_2_)" d="M48.862,111.422l-2.594-10.377h2.062l1.004,4.712c0.268,1.262,0.518,2.584,0.694,3.617h0.029
		c0.174-1.092,0.473-2.324,0.771-3.633l1.147-4.696h2.028l1.053,4.772c0.252,1.232,0.488,2.388,0.646,3.512h0.029
		c0.19-1.142,0.442-2.324,0.728-3.604l1.098-4.68h1.964l-2.858,10.377h-2.06l-1.101-4.879c-0.268-1.188-0.458-2.173-0.599-3.296
		h-0.03c-0.174,1.107-0.379,2.108-0.694,3.296l-1.226,4.879H48.862z"/>
	<path clip-path="url(#SVGID_2_)" d="M61.508,108.206c0.05,1.354,1.117,1.939,2.357,1.939c0.897,0,1.527-0.141,2.124-0.34
		l0.282,1.296c-0.659,0.276-1.573,0.476-2.672,0.476c-2.484,0-3.946-1.495-3.946-3.788c0-2.079,1.288-4.034,3.741-4.034
		c2.483,0,3.303,2.003,3.303,3.649c0,0.354-0.032,0.63-0.065,0.802H61.508z M64.874,106.88c0.014-0.692-0.301-1.832-1.589-1.832
		c-1.196,0-1.698,1.062-1.777,1.832H64.874z"/>
	<path clip-path="url(#SVGID_2_)" d="M70.314,101.832c0,0.553-0.424,1.015-1.101,1.015c-0.644,0-1.069-0.462-1.069-1.015
		c0-0.584,0.442-1.032,1.087-1.032C69.891,100.799,70.301,101.248,70.314,101.832 M68.256,103.924h1.934v7.497h-1.934V103.924z"/>
	<path clip-path="url(#SVGID_2_)" d="M79.217,110.331c0,1.567-0.329,2.693-1.132,3.402c-0.783,0.693-1.903,0.906-2.954,0.906
		c-0.976,0-2.013-0.213-2.675-0.599l0.427-1.432c0.485,0.276,1.305,0.569,2.229,0.569c1.258,0,2.202-0.646,2.202-2.264v-0.647
		h-0.032c-0.438,0.661-1.21,1.11-2.229,1.11c-1.904,0-3.258-1.541-3.258-3.665c0-2.465,1.639-3.958,3.475-3.958
		c1.18,0,1.855,0.556,2.219,1.172h0.03l0.078-1.002h1.685c-0.033,0.508-0.064,1.124-0.064,2.157V110.331z M77.282,106.928
		c0-0.186-0.014-0.355-0.06-0.51c-0.206-0.693-0.757-1.216-1.573-1.216c-1.088,0-1.888,0.924-1.888,2.448
		c0,1.277,0.661,2.309,1.872,2.309c0.724,0,1.353-0.463,1.569-1.155c0.065-0.184,0.079-0.444,0.079-0.662V106.928z"/>
	<path clip-path="url(#SVGID_2_)" d="M81.296,100.491h1.934v4.449h0.03c0.235-0.354,0.568-0.646,0.962-0.848
		c0.391-0.213,0.847-0.338,1.335-0.338c1.305,0,2.672,0.848,2.672,3.251v4.417h-1.934v-4.218c0-1.078-0.407-1.909-1.477-1.909
		c-0.754,0-1.291,0.491-1.51,1.063c-0.063,0.167-0.079,0.369-0.079,0.569v4.495h-1.934V100.491z"/>
	<path clip-path="url(#SVGID_2_)" d="M92.448,102v1.925h1.836v1.416h-1.836v3.31c0,0.924,0.25,1.386,0.988,1.386
		c0.346,0,0.535-0.014,0.754-0.076l0.033,1.431c-0.285,0.109-0.803,0.202-1.4,0.202c-0.723,0-1.307-0.231-1.666-0.616
		c-0.426-0.433-0.613-1.126-0.613-2.108v-3.527h-1.085v-1.416h1.085v-1.399L92.448,102z"/>
	<g clip-path="url(#SVGID_2_)">
		<text transform="matrix(1 0 0 1.0114 136.7314 111.4175)"><tspan x="0" y="0" font-family="'MyriadPro-Semibold'" font-size="15.5877">A</tspan><tspan x="9.852" y="0" font-family="'MyriadPro-Semibold'" font-size="15.5877">ir </tspan><tspan x="22.617" y="0" font-family="'MyriadPro-Semibold'" font-size="15.5877">C</tspan><tspan x="31.549" y="0" font-family="'MyriadPro-Semibold'" font-size="15.5877">ooling</tspan></text>
	</g>
	<g clip-path="url(#SVGID_2_)">
		<text transform="matrix(1 0 0 1.0114 273.8877 111.4175)"><tspan x="0" y="0" font-family="'MyriadPro-Semibold'" font-size="15.5877">D</tspan><tspan x="10.678" y="0" font-family="'MyriadPro-Semibold'" font-size="15.5877">r</tspan><tspan x="16.569" y="0" font-family="'MyriadPro-Semibold'" font-size="15.5877">y </tspan><tspan x="27.59" y="0" font-family="'MyriadPro-Semibold'" font-size="15.5877">F</tspan><tspan x="34.885" y="0" font-family="'MyriadPro-Semibold'" font-size="15.5877">ast</tspan></text>
	</g>
	<path clip-path="url(#SVGID_2_)" fill="none" stroke="#231F20" stroke-width="2.5" stroke-miterlimit="10" d="M597.95,72.891
		c0,9.284-7.527,16.813-16.811,16.813h-54.809c-9.281,0-16.811-7.529-16.811-16.813V18.084c0-9.283,7.529-16.813,16.811-16.813
		h54.809c9.283,0,16.811,7.53,16.811,16.813V72.891z"/>
	<path clip-path="url(#SVGID_2_)" fill="none" stroke="#231F20" stroke-miterlimit="10" d="M561.343,15.98
		c-0.291,0.064-0.512,0.023-0.688-0.168c-0.193-0.208-0.234-0.459-0.096-0.692c0.471-0.796,0.947-1.588,1.453-2.362
		c0.193-0.297,0.516-0.331,0.818-0.137c0.287,0.182,0.387,0.477,0.221,0.765c-0.471,0.812-0.973,1.607-1.471,2.402
		C561.524,15.88,561.403,15.934,561.343,15.98z"/>
	<path clip-path="url(#SVGID_2_)" fill="none" stroke="#231F20" stroke-miterlimit="10" d="M563.925,15.531
		c0.111-0.035,0.223-0.084,0.336-0.104c0.34-0.058,0.576,0.088,0.686,0.41c0.115,0.349-0.029,0.621-0.344,0.765
		c-0.574,0.262-1.158,0.507-1.748,0.73c-0.324,0.121-0.623,0.029-0.781-0.302c-0.162-0.344-0.074-0.651,0.273-0.817
		C562.864,15.967,563.397,15.757,563.925,15.531z"/>
	<path clip-path="url(#SVGID_2_)" fill="none" stroke="#231F20" stroke-miterlimit="10" d="M559.538,15.324
		c-0.371,0.125-0.771-0.11-0.805-0.517c-0.055-0.643-0.084-1.29-0.092-1.936c-0.002-0.351,0.209-0.577,0.568-0.616
		c0.338-0.035,0.641,0.212,0.664,0.566c0.045,0.63,0.061,1.261,0.082,1.892C559.968,15.014,559.808,15.208,559.538,15.324z"/>
	<path clip-path="url(#SVGID_2_)" fill="none" stroke="#231F20" stroke-miterlimit="10" d="M550.183,23.955
		c-0.799,0.253-1.596,0.509-2.396,0.759c-0.293,0.093-0.561,0.04-0.746-0.221c-0.156-0.224-0.158-0.468-0.008-0.703
		c0.102-0.159,0.266-0.226,0.436-0.28c1.555-0.494,3.109-0.992,4.664-1.48c0.459-0.144,0.781,0.002,0.895,0.374
		c0.111,0.366-0.074,0.666-0.531,0.815C551.726,23.471,550.954,23.71,550.183,23.955z"/>
	<path clip-path="url(#SVGID_2_)" fill="none" stroke="#231F20" stroke-miterlimit="10" d="M542.042,39.654h1.309
		c-1.379-4.338-2.756-8.676-4.137-13.014c-0.184-0.576-0.281-1.142-0.025-1.719c0.262-0.589,0.713-0.943,1.328-1.136
		c3.648-1.152,7.295-2.315,10.941-3.474c2.105-0.668,4.225-1.29,6.309-2.021c1.262-0.443,2.479,0.079,2.928,1.533
		c1.709,5.512,3.479,11.004,5.225,16.502c0.354,1.11,0.707,2.22,1.061,3.329h1.305c-0.389-1.224-0.777-2.447-1.166-3.671
		c-1.76-5.54-3.518-11.081-5.281-16.621c-0.654-2.062-2.32-2.919-4.391-2.263c-5.721,1.816-11.445,3.634-17.168,5.453
		c-2.059,0.655-2.93,2.329-2.275,4.39C539.349,31.18,540.696,35.417,542.042,39.654z"/>
	<path clip-path="url(#SVGID_2_)" fill="none" stroke="#231F20" stroke-miterlimit="10" d="M544.532,39.654h1.314
		c-1.02-3.208-2.033-6.417-3.057-9.624c-0.105-0.328-0.047-0.441,0.283-0.545c5.361-1.691,10.719-3.394,16.072-5.107
		c0.346-0.111,0.467-0.062,0.578,0.293c1.295,4.127,2.611,8.249,3.92,12.373c0.277,0.87,0.555,1.74,0.832,2.61h1.328
		c-1.75-5.511-3.508-11.021-5.25-16.536c-0.125-0.394-0.268-0.408-0.615-0.297c-6.127,1.958-12.258,3.905-18.391,5.841
		c-0.359,0.114-0.447,0.217-0.324,0.602C542.337,32.724,543.433,36.19,544.532,39.654z"/>
	<path clip-path="url(#SVGID_2_)" fill="none" stroke="#231F20" stroke-width="4" stroke-miterlimit="10" d="M573.7,76.271h-38.205
		c-0.951,0-1.725-0.771-1.725-1.724V39.654h39.93V76.271z"/>
	<g clip-path="url(#SVGID_2_)">
		<text transform="matrix(1 0 0 1.022 506.5215 111.1118)"><tspan x="0" y="0" fill="#231F20" font-family="'MyriadPro-Semibold'" font-size="16.7959">I</tspan><tspan x="4.535" y="0" fill="#231F20" font-family="'MyriadPro-Semibold'" font-size="16.7959">nside poc</tspan><tspan x="74.187" y="0" fill="#231F20" font-family="'MyriadPro-Semibold'" font-size="16.7959">k</tspan><tspan x="82.634" y="0" fill="#231F20" font-family="'MyriadPro-Semibold'" font-size="16.7959">et</tspan></text>
	</g>
</g>
</svg>
