<?xml version="1.0" encoding="utf-8"?>
<!-- Generator: Adobe Illustrator 16.0.0, SVG Export Plug-In . SVG Version: 6.00 Build 0)  -->
<!DOCTYPE svg PUBLIC "-//W3C//DTD SVG 1.1//EN" "http://www.w3.org/Graphics/SVG/1.1/DTD/svg11.dtd">
<svg version="1.1" id="Layer_1" xmlns="http://www.w3.org/2000/svg" xmlns:xlink="http://www.w3.org/1999/xlink" x="0px" y="0px"
	 width="601.7px" height="115.403px" viewBox="0 0 601.7 115.403" enable-background="new 0 0 601.7 115.403" xml:space="preserve">
<g>
	<defs>
		<rect id="SVGID_1_" width="601.7" height="115.403"/>
	</defs>
	<clipPath id="SVGID_2_">
		<use xlink:href="#SVGID_1_"  overflow="visible"/>
	</clipPath>
	<path clip-path="url(#SVGID_2_)" d="M197.283,90.843h-56.164c-10.089,0-18.295-8.04-18.295-17.918v-55.01
		C122.824,8.035,131.029,0,141.119,0h56.164c10.093,0,18.298,8.035,18.298,17.916v55.01
		C215.581,82.803,207.375,90.843,197.283,90.843 M141.119,2.095c-8.903,0-16.154,7.104-16.154,15.821v55.01
		c0,8.722,7.251,15.816,16.154,15.816h56.164c8.906,0,16.152-7.095,16.152-15.816v-55.01c0-8.717-7.246-15.821-16.152-15.821
		H141.119z"/>
	<path clip-path="url(#SVGID_2_)" d="M324.347,90.843h-56.16c-10.083,0-18.303-8.04-18.303-17.918v-55.01
		c0-9.881,8.22-17.916,18.303-17.916h56.16c10.094,0,18.306,8.035,18.306,17.916v55.01C342.652,82.803,334.44,90.843,324.347,90.843
		 M268.187,2.095c-8.902,0-16.148,7.104-16.148,15.821v55.01c0,8.722,7.246,15.816,16.148,15.816h56.16
		c8.9,0,16.159-7.095,16.159-15.816v-55.01c0-8.717-7.259-15.821-16.159-15.821H268.187z"/>
	<path clip-path="url(#SVGID_2_)" d="M333.707,50.774c-7.356-3.36-14.634-5.399-21.611-6.554v-13.2l3.203,3.372l2.262-2.076
		l-7.013-7.399l-7.023,7.399l2.276,2.076l3.192-3.356v12.759c-3.853-0.495-7.585-0.742-11.179-0.761V20.833l3.196,3.362l2.279-2.075
		l-7.022-7.398l-7.017,7.398l2.265,2.075l3.209-3.362v22.208c-3.965,0.109-7.712,0.453-11.198,0.935v-12.96l3.215,3.377l2.269-2.076
		l-7.02-7.399l-7.022,7.399l2.279,2.076l3.209-3.377V44.47c-12.545,2.163-20.935,5.98-21.65,6.304
		c-1.104,0.531-1.584,1.843-1.046,2.931c0.544,1.09,1.879,1.512,2.991,1.033c0.162-0.076,7.914-3.602,19.705-5.717v7.086
		l1.539,0.044l0.709,0.04v-0.023l0.822,0.023v-7.682c3.465-0.512,7.226-0.859,11.198-0.98v8.578l1.543,0.044l0.714,0.04v-0.023
		l0.832,0.023v-8.684c3.594,0.009,7.33,0.256,11.179,0.766v7.834l1.547,0.044l0.71,0.04v-0.028l0.846,0.028v-7.506
		c6.405,1.092,13.059,3.006,19.728,6.053c0.296,0.145,0.627,0.208,0.942,0.208c0.849,0,1.637-0.468,2.014-1.263
		C335.319,52.585,334.821,51.283,333.707,50.774"/>
	<path clip-path="url(#SVGID_2_)" d="M296.281,68.915c-2.423,0-4.417,1.932-4.417,4.306c0,2.38,1.994,4.32,4.417,4.32
		c2.425,0,4.398-1.94,4.398-4.32C300.679,70.846,298.706,68.915,296.281,68.915"/>
	<path clip-path="url(#SVGID_2_)" d="M312.306,72.884c-2.241,0-4.066,1.783-4.066,3.968c0,2.194,1.825,3.979,4.066,3.979
		c2.233,0,4.048-1.784,4.048-3.979C316.354,74.667,314.539,72.884,312.306,72.884"/>
	<path clip-path="url(#SVGID_2_)" d="M310.744,65.242c0-1.803-1.499-3.271-3.344-3.271c-1.846,0-3.358,1.469-3.358,3.271
		c0,1.808,1.513,3.276,3.358,3.276C309.245,68.518,310.744,67.049,310.744,65.242"/>
	<path clip-path="url(#SVGID_2_)" d="M280.242,72.884c-2.239,0-4.059,1.783-4.059,3.968c0,2.194,1.82,3.979,4.059,3.979
		c2.228,0,4.063-1.784,4.063-3.979C284.305,74.667,282.47,72.884,280.242,72.884"/>
	<path clip-path="url(#SVGID_2_)" d="M285.151,61.969c-1.848,0-3.356,1.47-3.356,3.272c0,1.808,1.508,3.276,3.356,3.276
		c1.84,0,3.345-1.469,3.345-3.276C288.496,63.439,286.991,61.969,285.151,61.969"/>
	<path clip-path="url(#SVGID_2_)" d="M270.973,65.297c-2.428,0-4.414,1.927-4.414,4.297c0,2.377,1.986,4.312,4.414,4.312
		c2.424,0,4.392-1.935,4.392-4.312C275.365,67.224,273.397,65.297,270.973,65.297"/>
	<path clip-path="url(#SVGID_2_)" d="M321.547,65.297c-2.419,0-4.396,1.927-4.396,4.297c0,2.377,1.977,4.312,4.396,4.312
		c2.422,0,4.398-1.935,4.398-4.312C325.945,67.224,323.969,65.297,321.547,65.297"/>
	<path clip-path="url(#SVGID_2_)" d="M194.589,57.796l-4.519-2.564l3.417-0.959c0.879-0.258,1.395-1.163,1.144-2.043
		c-0.265-0.865-1.144-1.332-2.081-1.116l-6.528,1.825l-4.087-2.322l6.094-1.698c0.881-0.245,1.396-1.165,1.149-2.039
		c-0.268-0.872-1.149-1.359-2.089-1.128l-9.186,2.579l-5.499-3.12l13.678-7.686l6.497,1.975c0.167,0.05,0.333,0.072,0.5,0.072
		c0.715,0,1.372-0.454,1.609-1.165c0.273-0.863-0.237-1.781-1.111-2.05l-3.52-1.064l4.574-2.571
		c0.813-0.443,1.086-1.447,0.619-2.239c-0.467-0.802-1.501-1.069-2.288-0.609l-4.416,2.484l0.837-3.135
		c0.234-0.883-0.291-1.783-1.19-2.008c-0.991-0.214-1.817,0.299-2.048,1.163l-1.675,6.274l-13.749,7.727v-6.199l6.984-6.516
		c0.679-0.621,0.695-1.658,0.056-2.328c-0.652-0.634-1.71-0.687-2.38-0.043l-4.66,4.349v-4.931l4.975-4.26
		c0.715-0.59,0.771-1.627,0.161-2.308c-0.583-0.68-1.648-0.745-2.351-0.16l-2.785,2.375V17.66c0-0.908-0.774-1.644-1.684-1.644
		c-0.928,0-1.68,0.736-1.68,1.644v4.518l-2.434-2.21c-0.68-0.613-1.754-0.577-2.367,0.085c-0.633,0.66-0.596,1.702,0.083,2.315
		l4.718,4.306v4.853l-4.335-4.19c-0.654-0.634-1.728-0.654-2.362,0.022c-0.657,0.643-0.657,1.679,0.013,2.306l6.684,6.471v6.214
		l-14.333-8.139l-0.824-5.82c-0.151-0.904-0.999-1.417-1.903-1.407c-0.913,0.141-1.56,0.962-1.435,1.855l0.463,3.275l-3.809-2.164
		c-0.793-0.453-1.833-0.195-2.302,0.596c-0.466,0.791-0.181,1.785,0.612,2.244l3.856,2.193l-3.284,1.341
		c-0.861,0.356-1.271,1.308-0.918,2.149c0.28,0.629,0.897,1.01,1.56,1.01c0.212,0,0.434-0.032,0.642-0.123l5.656-2.304l14.355,8.146
		l-5.521,3.103l-9.084-2.374c-0.848-0.241-1.813,0.282-2.04,1.162c-0.254,0.875,0.282,1.766,1.173,2.001l5.827,1.525l-4.404,2.478
		l-6.058-1.716c-0.888-0.239-1.826,0.261-2.08,1.127c-0.25,0.872,0.26,1.779,1.142,2.043l2.942,0.822l-3.83,2.153
		c-0.803,0.45-1.086,1.45-0.612,2.236c0.295,0.536,0.865,0.835,1.445,0.835c0.288,0,0.564-0.071,0.828-0.223l4.145-2.329
		l-0.674,3.673c-0.155,0.896,0.451,1.75,1.373,1.909c0.102,0.014,0.196,0.019,0.286,0.019c0.802,0,1.498-0.555,1.656-1.354
		l1.169-6.383l4.485-2.528l-1.522,6.25c-0.218,0.888,0.349,1.771,1.24,1.977c0.136,0.039,0.258,0.048,0.395,0.048
		c0.752,0,1.446-0.504,1.623-1.264l2.257-9.249l5.503-3.093v15.77l-4.685,4.287c-0.677,0.618-0.712,1.653-0.078,2.324
		c0.328,0.343,0.766,0.518,1.226,0.518c0.4,0,0.819-0.149,1.145-0.445l2.392-2.189v4.871c0,0.899,0.752,1.649,1.68,1.649
		c0.91,0,1.684-0.75,1.684-1.649v-5.052l2.757,2.384c0.731,0.608,1.76,0.53,2.376-0.149c0.608-0.686,0.543-1.722-0.158-2.331
		l-4.975-4.275V48.057l5.431,3.08l2.317,9.195c0.185,0.741,0.868,1.253,1.622,1.253c0.131,0,0.271-0.009,0.412-0.052
		c0.892-0.221,1.445-1.113,1.226-1.992l-1.541-6.118l4.157,2.359l1.714,6.518c0.201,0.744,0.882,1.24,1.628,1.24
		c0.133,0,0.273-0.023,0.405-0.054c0.907-0.235,1.447-1.122,1.224-2.001l-0.889-3.384l4.475,2.539
		c0.262,0.151,0.559,0.229,0.847,0.229c0.582,0,1.133-0.293,1.447-0.817C195.657,59.259,195.389,58.259,194.589,57.796"/>
	<path clip-path="url(#SVGID_2_)" d="M450.99,90.843h-56.158c-10.095,0-18.3-8.04-18.3-17.918v-55.01
		c0-9.881,8.205-17.916,18.3-17.916h56.158c10.093,0,18.304,8.035,18.304,17.916v55.01C469.294,82.803,461.083,90.843,450.99,90.843
		 M394.832,2.095c-8.909,0-16.154,7.104-16.154,15.821v55.01c0,8.722,7.245,15.816,16.154,15.816h56.158
		c8.912,0,16.155-7.095,16.155-15.816v-55.01c0-8.717-7.243-15.821-16.155-15.821H394.832z"/>
	<path clip-path="url(#SVGID_2_)" d="M460.344,67.107c-37.563-17.171-73.376-0.69-74.901,0c-1.109,0.537-1.577,1.846-1.042,2.938
		c0.532,1.083,1.866,1.504,2.991,1.025c0.339-0.163,35.39-16.301,71.064,0c0.302,0.147,0.629,0.203,0.945,0.203
		c0.85,0,1.645-0.463,2.024-1.26C461.949,68.915,461.456,67.615,460.344,67.107"/>
	<path clip-path="url(#SVGID_2_)" d="M415.448,34.257c4.743,0,7.447-3.001,7.447-8.206V15.735l5.909,17.628L429,33.984h3.757
		l6.831-18.717h-4.324l-3.146,8.96c-0.428,1.221-0.789,2.315-1.101,3.31c-0.313-0.995-0.653-2.089-1.024-3.31l-2.896-8.96h-4.201
		h-0.153h-3.908v10.95c0,2.967-1.116,4.475-3.294,4.475c-2.57,0-3.124-2.434-3.124-4.475v-10.95h-4.076v10.865
		C408.34,33.207,412.806,34.257,415.448,34.257"/>
	<path clip-path="url(#SVGID_2_)" d="M408.631,47.757l-0.165-4.576l13.864,13.572c0.285,0.284,0.677,0.441,1.094,0.441
		c0.403,0,0.803-0.157,1.088-0.441l13.74-13.441l-0.166,4.582l3.108,0.111l0.36-10.092l-10.293,0.369l0.114,3.045l4.687-0.175
		l-12.639,12.366l-12.766-12.49l4.677,0.166l0.113-3.048l-10.299-0.359l0.378,10.075L408.631,47.757z"/>
	<path clip-path="url(#SVGID_2_)" d="M378.773,101.045v6.051c0,2.034,0.863,2.972,2.17,2.972c1.397,0,2.229-0.938,2.229-2.972
		v-6.051h1.935v5.928c0,3.203-1.682,4.619-4.229,4.619c-2.452,0-4.039-1.339-4.039-4.605v-5.941H378.773z"/>
	<path clip-path="url(#SVGID_2_)" d="M389.752,111.422l-3.428-10.377h2.105l1.447,4.728c0.407,1.31,0.769,2.51,1.036,3.771h0.032
		c0.283-1.232,0.676-2.494,1.085-3.758l1.541-4.741h2.061l-3.663,10.377H389.752z"/>
	<path clip-path="url(#SVGID_2_)" d="M400.037,101.184c0.707-0.122,1.667-0.215,2.956-0.215c1.415,0,2.438,0.292,3.113,0.848
		c0.629,0.507,1.039,1.324,1.039,2.294c0,0.982-0.314,1.784-0.896,2.337c-0.786,0.757-1.981,1.126-3.35,1.126
		c-0.36,0-0.675-0.016-0.943-0.077v3.926h-1.92V101.184z M401.957,106.004c0.249,0.077,0.55,0.091,0.943,0.091
		c1.447,0,2.328-0.707,2.328-1.908c0-1.154-0.82-1.757-2.157-1.757c-0.531,0-0.911,0.047-1.114,0.096V106.004z"/>
	<path clip-path="url(#SVGID_2_)" d="M408.563,106.341c0-1.017-0.017-1.755-0.064-2.417h1.668l0.079,1.416h0.046
		c0.376-1.046,1.273-1.586,2.106-1.586c0.189,0,0.3,0.017,0.456,0.048v1.77c-0.174-0.029-0.345-0.046-0.581-0.046
		c-0.91,0-1.557,0.569-1.73,1.432c-0.032,0.17-0.045,0.369-0.045,0.568v3.896h-1.935V106.341z"/>
	<path clip-path="url(#SVGID_2_)" d="M421.316,107.603c0,2.757-1.982,3.989-3.931,3.989c-2.155,0-3.835-1.447-3.835-3.864
		c0-2.465,1.649-3.974,3.96-3.974C419.792,103.754,421.316,105.325,421.316,107.603 M415.545,107.68c0,1.45,0.74,2.542,1.903,2.542
		c1.102,0,1.871-1.047,1.871-2.571c0-1.171-0.534-2.525-1.854-2.525C416.095,105.125,415.545,106.434,415.545,107.68"/>
	<path clip-path="url(#SVGID_2_)" d="M425.124,102v1.925h1.839v1.416h-1.839v3.31c0,0.924,0.252,1.386,0.989,1.386
		c0.345,0,0.535-0.014,0.757-0.076l0.03,1.431c-0.285,0.109-0.802,0.202-1.399,0.202c-0.722,0-1.305-0.231-1.666-0.616
		c-0.426-0.433-0.614-1.126-0.614-2.108v-3.527h-1.082v-1.416h1.082v-1.399L425.124,102z"/>
	<path clip-path="url(#SVGID_2_)" d="M429.702,108.206c0.047,1.354,1.114,1.939,2.358,1.939c0.896,0,1.525-0.141,2.122-0.34
		l0.284,1.296c-0.661,0.276-1.573,0.476-2.673,0.476c-2.485,0-3.947-1.495-3.947-3.788c0-2.079,1.288-4.034,3.742-4.034
		c2.484,0,3.301,2.003,3.301,3.649c0,0.354-0.029,0.63-0.062,0.802H429.702z M433.065,106.88c0.017-0.692-0.297-1.832-1.587-1.832
		c-1.193,0-1.698,1.062-1.776,1.832H433.065z"/>
	<path clip-path="url(#SVGID_2_)" d="M442.077,111.191c-0.406,0.188-1.21,0.386-2.17,0.386c-2.387,0-3.945-1.509-3.945-3.833
		c0-2.249,1.572-3.989,4.261-3.989c0.708,0,1.432,0.154,1.872,0.338l-0.345,1.434c-0.315-0.153-0.773-0.292-1.463-0.292
		c-1.48,0-2.358,1.062-2.344,2.433c0,1.538,1.021,2.415,2.344,2.415c0.659,0,1.147-0.136,1.524-0.29L442.077,111.191z"/>
	<path clip-path="url(#SVGID_2_)" d="M445.949,102v1.925h1.837v1.416h-1.837v3.31c0,0.924,0.25,1.386,0.99,1.386
		c0.345,0,0.534-0.014,0.754-0.076l0.033,1.431c-0.285,0.109-0.802,0.202-1.402,0.202c-0.722,0-1.305-0.231-1.665-0.616
		c-0.426-0.433-0.612-1.126-0.612-2.108v-3.527h-1.085v-1.416h1.085v-1.399L445.949,102z"/>
	<path clip-path="url(#SVGID_2_)" d="M451.313,101.832c0,0.553-0.424,1.015-1.102,1.015c-0.643,0-1.069-0.462-1.069-1.015
		c0-0.584,0.442-1.032,1.089-1.032C450.889,100.799,451.298,101.248,451.313,101.832 M449.253,103.924h1.934v7.497h-1.934V103.924z"
		/>
	<path clip-path="url(#SVGID_2_)" d="M460.56,107.603c0,2.757-1.982,3.989-3.932,3.989c-2.153,0-3.836-1.447-3.836-3.864
		c0-2.465,1.651-3.974,3.96-3.974C459.033,103.754,460.56,105.325,460.56,107.603 M454.788,107.68c0,1.45,0.738,2.542,1.904,2.542
		c1.101,0,1.869-1.047,1.869-2.571c0-1.171-0.534-2.525-1.855-2.525C455.34,105.125,454.788,106.434,454.788,107.68"/>
	<path clip-path="url(#SVGID_2_)" d="M462.151,106.158c0-0.862-0.031-1.585-0.063-2.233h1.683l0.093,1.124h0.05
		c0.344-0.585,1.177-1.294,2.451-1.294c1.338,0,2.721,0.848,2.721,3.219v4.449h-1.935v-4.233c0-1.078-0.408-1.894-1.462-1.894
		c-0.77,0-1.305,0.536-1.511,1.107c-0.063,0.154-0.092,0.385-0.092,0.603v4.417h-1.935V106.158z"/>
	<path clip-path="url(#SVGID_2_)" d="M450.984,90.843h-56.158c-10.096,0-18.301-8.04-18.301-17.918v-55.01
		C376.525,8.035,384.73,0,394.826,0h56.158c10.092,0,18.303,8.035,18.303,17.916v55.01
		C469.287,82.803,461.076,90.843,450.984,90.843 M394.826,2.095c-8.91,0-16.155,7.104-16.155,15.821v55.01
		c0,8.722,7.245,15.816,16.155,15.816h56.158c8.911,0,16.155-7.095,16.155-15.816v-55.01c0-8.717-7.244-15.821-16.155-15.821
		H394.826z"/>
	<path clip-path="url(#SVGID_2_)" d="M460.338,67.107c-37.563-17.171-73.376-0.69-74.901,0c-1.109,0.537-1.578,1.846-1.042,2.938
		c0.532,1.083,1.865,1.504,2.991,1.025c0.338-0.163,35.39-16.301,71.064,0c0.302,0.147,0.629,0.203,0.944,0.203
		c0.851,0,1.646-0.463,2.025-1.26C461.942,68.915,461.45,67.615,460.338,67.107"/>
	<path clip-path="url(#SVGID_2_)" d="M415.442,34.257c4.743,0,7.447-3.001,7.447-8.206V15.735l5.909,17.628l0.195,0.621h3.757
		l6.831-18.717h-4.324l-3.146,8.96c-0.427,1.221-0.788,2.315-1.1,3.31c-0.313-0.995-0.653-2.089-1.025-3.31l-2.896-8.96h-4.201
		h-0.153h-3.907v10.95c0,2.967-1.117,4.475-3.294,4.475c-2.571,0-3.124-2.434-3.124-4.475v-10.95h-4.077v10.865
		C408.334,33.207,412.8,34.257,415.442,34.257"/>
	<path clip-path="url(#SVGID_2_)" d="M408.624,47.757l-0.164-4.576l13.864,13.572c0.284,0.284,0.677,0.441,1.093,0.441
		c0.404,0,0.804-0.157,1.089-0.441l13.74-13.441l-0.166,4.582l3.107,0.111l0.361-10.092l-10.293,0.369l0.114,3.045l4.687-0.175
		l-12.64,12.366l-12.766-12.49l4.678,0.166l0.113-3.048l-10.299-0.359l0.377,10.075L408.624,47.757z"/>
	<path clip-path="url(#SVGID_2_)" d="M24.173,67.806c-1.204,0-1.95-0.057-2.06-0.063c-0.201-0.014-0.393-0.114-0.509-0.274
		c-0.132-0.161-0.169-0.362-0.135-0.557c0.908-4.559,4.931-10.048,5.098-10.28c6.877-8.561,16.777-11.219,21.229-12.184
		c-0.302-0.077-0.588-0.152-0.84-0.212c-1.11-0.275-1.759-0.439-2.051-0.583c-0.237-0.115-0.442-0.453-0.451-0.71
		c-0.041-1.429,4.936-6.62,10.686-9.852c6.663-3.74,12.201-0.955,12.428-0.835c0.348,0.175,0.477,0.6,0.294,0.938
		c-0.181,0.342-0.608,0.481-0.962,0.296c-0.201-0.104-5.093-2.539-11.044,0.803c-5.101,2.871-8.86,6.837-9.771,8.283
		c0.354,0.088,0.827,0.201,1.207,0.303c2.919,0.707,3.676,0.918,3.676,1.694c0,0.645-0.442,0.73-1.751,0.996
		c-3.532,0.725-14.316,2.945-21.51,11.901c-0.026,0.033-3.513,4.807-4.644,8.919c2.554,0.057,10.399-0.022,17.47-3.163
		C57.152,55.86,66.762,48.855,69.045,42.41c0.825-2.325,0.684-4.506-0.455-6.651c-0.175-0.34-0.041-0.767,0.306-0.942
		c0.352-0.179,0.783-0.042,0.967,0.299c1.3,2.473,1.487,5.081,0.531,7.753c-3.651,10.283-22.936,18.82-29.272,21.626
		C34.58,67.396,27.568,67.806,24.173,67.806"/>
	<path clip-path="url(#SVGID_2_)" d="M32.124,63.123c-0.256,0-0.517-0.14-0.635-0.377c-0.174-0.35-0.042-0.767,0.31-0.942
		c0.367-0.18,36.559-18.226,38.083-38.122c0.023-0.377,0.302-0.683,0.759-0.638c0.393,0.019,0.689,0.365,0.656,0.743
		c-1.58,20.684-37.329,38.515-38.864,39.271C32.337,63.104,32.236,63.123,32.124,63.123"/>
	<path clip-path="url(#SVGID_2_)" d="M68.653,34.088c1.884-3.291,3.184-6.719,3.457-10.244c0.054-0.814-0.556-1.512-1.537-1.597
		c-0.819,0-1.443,0.582-1.507,1.368c-0.191,2.542-1.008,5.056-2.224,7.503c-1-0.357-2.543-0.759-4.539-0.759
		c-2.598,0-5.151,0.692-7.561,2.054c-5.455,3.05-11.146,8.484-11.099,10.572c0.027,0.47,0.358,1.124,0.9,1.368
		c0.034,0.018,0.073,0.041,0.109,0.056c-7.955,2.22-14.244,6.171-18.716,11.743c-0.048,0.051-4.293,5.77-5.257,10.613
		c-0.086,0.423,0.01,0.851,0.265,1.149c0.246,0.356,0.674,0.583,1.079,0.604c0.114,0.021,0.9,0.078,2.145,0.078
		c3.611,0,10.644-0.44,17.279-3.376c6.417-2.837,25.942-11.49,29.704-22.089c1.02-2.879,0.832-5.702-0.578-8.381
		C70.209,34.07,69.271,33.853,68.653,34.088 M68.286,42.155c-2.212,6.221-11.66,13.078-28.092,20.36
		c-5.995,2.652-12.57,3.078-16.043,3.084c1.304-3.667,4.16-7.6,4.183-7.637c7.014-8.731,17.572-10.905,21.085-11.622
		c1.315-0.281,2.363-0.497,2.363-1.767c0-1.411-1.163-1.693-4.298-2.463l-0.038-0.017c1.507-1.793,4.776-4.837,8.805-7.111
		c1.954-1.095,3.996-1.651,6.06-1.651c1.28,0,2.308,0.212,3.056,0.431c-9.269,14.779-32.714,26.734-33.935,27.339
		c-0.354,0.176-0.633,0.483-0.758,0.865c-0.125,0.379-0.091,0.779,0.109,1.147c0.257,0.498,0.774,0.812,1.347,0.812
		c0.223,0,0.469-0.068,0.683-0.164c1.225-0.604,24.92-12.479,34.932-28.093c0.02,0.154,0.048,0.309,0.124,0.458
		C68.904,38.068,69.042,40.036,68.286,42.155"/>
	<path clip-path="url(#SVGID_2_)" d="M74.457,90.843H18.298C8.205,90.843,0,82.803,0,72.925v-55.01C0,8.035,8.205,0,18.298,0h56.159
		c10.091,0,18.305,8.035,18.305,17.916v55.01C92.762,82.803,84.548,90.843,74.457,90.843 M18.298,2.095
		c-8.905,0-16.152,7.104-16.152,15.821v55.01c0,8.722,7.247,15.816,16.152,15.816h56.159c8.909,0,16.154-7.095,16.154-15.816v-55.01
		c0-8.717-7.245-15.821-16.154-15.821H18.298z"/>
	<polygon clip-path="url(#SVGID_2_)" points="4.21,101.045 6.145,101.045 6.145,109.836 10.5,109.836 10.5,111.422 4.21,111.422 	
		"/>
	<path clip-path="url(#SVGID_2_)" d="M13.947,101.832c0,0.553-0.426,1.015-1.101,1.015c-0.646,0-1.069-0.462-1.069-1.015
		c0-0.584,0.439-1.032,1.082-1.032C13.521,100.799,13.928,101.248,13.947,101.832 M11.886,103.924h1.934v7.497h-1.934V103.924z"/>
	<path clip-path="url(#SVGID_2_)" d="M22.848,110.331c0,1.567-0.331,2.693-1.134,3.402c-0.786,0.693-1.901,0.906-2.956,0.906
		c-0.974,0-2.012-0.213-2.672-0.599l0.424-1.432c0.487,0.276,1.304,0.569,2.234,0.569c1.258,0,2.2-0.646,2.2-2.264v-0.647h-0.03
		c-0.442,0.661-1.212,1.11-2.234,1.11c-1.902,0-3.253-1.541-3.253-3.665c0-2.465,1.633-3.958,3.474-3.958
		c1.18,0,1.856,0.556,2.217,1.172h0.032l0.078-1.002h1.68c-0.03,0.508-0.06,1.124-0.06,2.157V110.331z M20.914,106.928
		c0-0.186-0.019-0.355-0.065-0.51c-0.204-0.693-0.754-1.216-1.573-1.216c-1.082,0-1.885,0.924-1.885,2.448
		c0,1.277,0.659,2.309,1.871,2.309c0.722,0,1.351-0.463,1.573-1.155c0.06-0.184,0.079-0.444,0.079-0.662V106.928z"/>
	<path clip-path="url(#SVGID_2_)" d="M24.925,100.491h1.934v4.449h0.032c0.236-0.354,0.565-0.646,0.958-0.848
		c0.393-0.213,0.851-0.338,1.337-0.338c1.304,0,2.674,0.848,2.674,3.251v4.417h-1.934v-4.218c0-1.078-0.409-1.909-1.48-1.909
		c-0.754,0-1.289,0.491-1.509,1.063c-0.062,0.167-0.078,0.369-0.078,0.569v4.495h-1.934V100.491z"/>
	<path clip-path="url(#SVGID_2_)" d="M36.075,102v1.925h1.841v1.416h-1.841v3.31c0,0.924,0.252,1.386,0.99,1.386
		c0.347,0,0.536-0.014,0.756-0.076l0.03,1.431c-0.282,0.109-0.8,0.202-1.397,0.202c-0.724,0-1.304-0.231-1.668-0.616
		c-0.423-0.433-0.613-1.126-0.613-2.108v-3.527h-1.085v-1.416h1.085v-1.399L36.075,102z"/>
	<path clip-path="url(#SVGID_2_)" d="M43.861,111.422l-2.593-10.377h2.061l1.004,4.712c0.268,1.262,0.518,2.584,0.694,3.617h0.03
		c0.174-1.092,0.472-2.324,0.77-3.633l1.148-4.696h2.028l1.053,4.772c0.252,1.232,0.488,2.388,0.645,3.512h0.03
		c0.19-1.142,0.442-2.324,0.727-3.604l1.098-4.68h1.964l-2.859,10.377h-2.059l-1.101-4.879c-0.268-1.188-0.458-2.173-0.599-3.296
		h-0.03c-0.174,1.107-0.379,2.108-0.694,3.296l-1.226,4.879H43.861z"/>
	<path clip-path="url(#SVGID_2_)" d="M56.507,108.206c0.049,1.354,1.117,1.939,2.357,1.939c0.898,0,1.527-0.141,2.124-0.34
		l0.282,1.296c-0.659,0.276-1.573,0.476-2.672,0.476c-2.484,0-3.946-1.495-3.946-3.788c0-2.079,1.288-4.034,3.741-4.034
		c2.484,0,3.303,2.003,3.303,3.649c0,0.354-0.032,0.63-0.065,0.802H56.507z M59.874,106.88c0.014-0.692-0.301-1.832-1.589-1.832
		c-1.196,0-1.698,1.062-1.777,1.832H59.874z"/>
	<path clip-path="url(#SVGID_2_)" d="M65.314,101.832c0,0.553-0.424,1.015-1.101,1.015c-0.643,0-1.069-0.462-1.069-1.015
		c0-0.584,0.442-1.032,1.087-1.032C64.89,100.799,65.3,101.248,65.314,101.832 M63.255,103.924h1.934v7.497h-1.934V103.924z"/>
	<path clip-path="url(#SVGID_2_)" d="M74.216,110.331c0,1.567-0.329,2.693-1.131,3.402c-0.784,0.693-1.904,0.906-2.954,0.906
		c-0.976,0-2.013-0.213-2.675-0.599l0.426-1.432c0.486,0.276,1.305,0.569,2.23,0.569c1.258,0,2.202-0.646,2.202-2.264v-0.647h-0.032
		c-0.439,0.661-1.21,1.11-2.23,1.11c-1.904,0-3.257-1.541-3.257-3.665c0-2.465,1.638-3.958,3.474-3.958
		c1.18,0,1.856,0.556,2.219,1.172h0.03l0.078-1.002h1.685c-0.033,0.508-0.065,1.124-0.065,2.157V110.331z M72.282,106.928
		c0-0.186-0.014-0.355-0.06-0.51c-0.206-0.693-0.757-1.216-1.573-1.216c-1.088,0-1.888,0.924-1.888,2.448
		c0,1.277,0.662,2.309,1.872,2.309c0.724,0,1.353-0.463,1.57-1.155c0.065-0.184,0.079-0.444,0.079-0.662V106.928z"/>
	<path clip-path="url(#SVGID_2_)" d="M76.295,100.491h1.934v4.449h0.03c0.236-0.354,0.569-0.646,0.962-0.848
		c0.391-0.213,0.847-0.338,1.335-0.338c1.305,0,2.672,0.848,2.672,3.251v4.417h-1.934v-4.218c0-1.078-0.407-1.909-1.476-1.909
		c-0.754,0-1.291,0.491-1.51,1.063c-0.063,0.167-0.079,0.369-0.079,0.569v4.495h-1.934V100.491z"/>
	<path clip-path="url(#SVGID_2_)" d="M87.447,102v1.925h1.836v1.416h-1.836v3.31c0,0.924,0.25,1.386,0.99,1.386
		c0.344,0,0.534-0.014,0.754-0.076l0.032,1.431c-0.284,0.109-0.802,0.202-1.401,0.202c-0.722,0-1.305-0.231-1.666-0.616
		c-0.425-0.433-0.613-1.126-0.613-2.108v-3.527h-1.085v-1.416h1.085v-1.399L87.447,102z"/>
	<g clip-path="url(#SVGID_2_)">
		<text transform="matrix(1 0 0 1.0114 131.7305 111.4175)"><tspan x="0" y="0" font-family="'MyriadPro-Semibold'" font-size="15.5877">A</tspan><tspan x="9.851" y="0" font-family="'MyriadPro-Semibold'" font-size="15.5877">ir </tspan><tspan x="22.617" y="0" font-family="'MyriadPro-Semibold'" font-size="15.5877">C</tspan><tspan x="31.549" y="0" font-family="'MyriadPro-Semibold'" font-size="15.5877">ooling</tspan></text>
	</g>
	<g clip-path="url(#SVGID_2_)">
		<text transform="matrix(1 0 0 1.0114 268.8867 111.4175)"><tspan x="0" y="0" font-family="'MyriadPro-Semibold'" font-size="15.5877">D</tspan><tspan x="10.678" y="0" font-family="'MyriadPro-Semibold'" font-size="15.5877">r</tspan><tspan x="16.569" y="0" font-family="'MyriadPro-Semibold'" font-size="15.5877">y </tspan><tspan x="27.59" y="0" font-family="'MyriadPro-Semibold'" font-size="15.5877">F</tspan><tspan x="34.885" y="0" font-family="'MyriadPro-Semibold'" font-size="15.5877">ast</tspan></text>
	</g>
	<path clip-path="url(#SVGID_2_)" fill="none" stroke="#231F20" stroke-width="2.5" stroke-miterlimit="10" d="M592.95,72.891
		c0,9.284-7.527,16.813-16.811,16.813h-54.809c-9.281,0-16.811-7.529-16.811-16.813V18.084c0-9.283,7.529-16.813,16.811-16.813
		h54.809c9.283,0,16.811,7.53,16.811,16.813V72.891z"/>
	<path clip-path="url(#SVGID_2_)" fill="none" stroke="#231F20" stroke-miterlimit="10" d="M556.343,15.98
		c-0.291,0.064-0.512,0.023-0.688-0.168c-0.193-0.208-0.233-0.459-0.096-0.692c0.472-0.796,0.947-1.588,1.453-2.362
		c0.193-0.297,0.517-0.331,0.818-0.137c0.287,0.182,0.388,0.477,0.221,0.765c-0.47,0.812-0.972,1.607-1.471,2.402
		C556.523,15.88,556.403,15.934,556.343,15.98z"/>
	<path clip-path="url(#SVGID_2_)" fill="none" stroke="#231F20" stroke-miterlimit="10" d="M558.924,15.531
		c0.112-0.035,0.223-0.084,0.337-0.104c0.34-0.058,0.576,0.088,0.685,0.41c0.115,0.349-0.028,0.621-0.344,0.765
		c-0.573,0.262-1.157,0.507-1.748,0.73c-0.324,0.121-0.623,0.029-0.78-0.302c-0.162-0.344-0.074-0.651,0.272-0.817
		C557.863,15.967,558.397,15.757,558.924,15.531z"/>
	<path clip-path="url(#SVGID_2_)" fill="none" stroke="#231F20" stroke-miterlimit="10" d="M554.537,15.324
		c-0.37,0.125-0.771-0.11-0.805-0.517c-0.054-0.643-0.084-1.29-0.091-1.936c-0.002-0.351,0.209-0.577,0.568-0.616
		c0.337-0.035,0.64,0.212,0.664,0.566c0.044,0.63,0.061,1.261,0.082,1.892C554.967,15.014,554.807,15.208,554.537,15.324z"/>
	<path clip-path="url(#SVGID_2_)" fill="none" stroke="#231F20" stroke-miterlimit="10" d="M545.182,23.955
		c-0.798,0.253-1.596,0.509-2.396,0.759c-0.294,0.093-0.562,0.04-0.746-0.221c-0.157-0.224-0.159-0.468-0.008-0.703
		c0.101-0.159,0.265-0.226,0.435-0.28c1.555-0.494,3.109-0.992,4.665-1.48c0.458-0.144,0.78,0.002,0.894,0.374
		c0.111,0.366-0.074,0.666-0.531,0.815C546.725,23.471,545.953,23.71,545.182,23.955z"/>
	<path clip-path="url(#SVGID_2_)" fill="none" stroke="#231F20" stroke-miterlimit="10" d="M537.041,39.654h1.309
		c-1.378-4.338-2.756-8.676-4.136-13.014c-0.184-0.576-0.282-1.142-0.025-1.719c0.262-0.589,0.713-0.943,1.327-1.136
		c3.648-1.152,7.295-2.315,10.941-3.474c2.105-0.668,4.226-1.29,6.309-2.021c1.262-0.443,2.479,0.079,2.929,1.533
		c1.708,5.512,3.479,11.004,5.225,16.502c0.353,1.11,0.706,2.22,1.06,3.329h1.305c-0.388-1.224-0.777-2.447-1.166-3.671
		c-1.76-5.54-3.518-11.081-5.28-16.621c-0.655-2.062-2.32-2.919-4.391-2.263c-5.722,1.816-11.445,3.634-17.168,5.453
		c-2.06,0.655-2.93,2.329-2.275,4.39C534.349,31.18,535.695,35.417,537.041,39.654z"/>
	<path clip-path="url(#SVGID_2_)" fill="none" stroke="#231F20" stroke-miterlimit="10" d="M539.532,39.654h1.314
		c-1.021-3.208-2.034-6.417-3.057-9.624c-0.105-0.328-0.048-0.441,0.283-0.545c5.36-1.691,10.719-3.394,16.072-5.107
		c0.346-0.111,0.466-0.062,0.577,0.293c1.296,4.127,2.611,8.249,3.921,12.373c0.277,0.87,0.555,1.74,0.831,2.61h1.329
		c-1.751-5.511-3.508-11.021-5.25-16.536c-0.125-0.394-0.268-0.408-0.616-0.297c-6.127,1.958-12.257,3.905-18.39,5.841
		c-0.359,0.114-0.448,0.217-0.324,0.602C537.336,32.724,538.433,36.19,539.532,39.654z"/>
	<path clip-path="url(#SVGID_2_)" fill="none" stroke="#231F20" stroke-width="4" stroke-miterlimit="10" d="M568.7,76.271h-38.206
		c-0.951,0-1.724-0.771-1.724-1.724V39.654h39.93V76.271z"/>
	<g clip-path="url(#SVGID_2_)">
		<text transform="matrix(1 0 0 1.022 504.5205 111.1118)"><tspan x="0" y="0" fill="#231F20" font-family="'MyriadPro-Semibold'" font-size="16.7959">I</tspan><tspan x="4.535" y="0" fill="#231F20" font-family="'MyriadPro-Semibold'" font-size="16.7959">nside poc</tspan><tspan x="74.187" y="0" fill="#231F20" font-family="'MyriadPro-Semibold'" font-size="16.7959">k</tspan><tspan x="82.634" y="0" fill="#231F20" font-family="'MyriadPro-Semibold'" font-size="16.7959">et</tspan></text>
	</g>
</g>
</svg>
