<?xml version="1.0" encoding="utf-8"?>
<!-- Generator: Adobe Illustrator 21.0.2, SVG Export Plug-In . SVG Version: 6.00 Build 0)  -->
<svg version="1.1" id="레이어_1" xmlns="http://www.w3.org/2000/svg" xmlns:xlink="http://www.w3.org/1999/xlink" x="0px"
	 y="0px" viewBox="0 0 1000 134.6" style="enable-background:new 0 0 1000 134.6;" xml:space="preserve">
<g>
	<g>
		<g>
			<polygon points="0,4.1 0,130.3 75.9,130.3 75.9,114.8 17.4,114.8 17.4,4.1 			"/>
			<rect x="96.5" y="4.1" width="17.3" height="126.2"/>
			<polygon points="210.9,4.1 188.2,117.2 187.7,117.2 165.3,4.1 134.4,4.1 134.4,130.3 151.9,130.3 151.9,13.9 175.4,130.3 
				200.7,130.3 224.2,13.9 224.2,130.3 241.8,130.3 241.8,4.1 			"/>
			<polygon points="259.4,4.1 259.4,130.3 335.3,130.3 335.3,115.4 276.7,115.4 276.7,73 334.8,73 334.8,58 276.7,58 276.7,19.2 
				335.3,19.2 335.3,4.1 			"/>
		</g>
		<g>
			<path d="M419.2,119.3c-28.4,0-51.4-23.3-51.4-52c0-28.8,23-52.1,51.4-52.1c28.5,0,51.5,23.3,51.5,52.1
				C470.8,96.1,447.7,119.3,419.2,119.3 M419.2,0c-36.6,0-66.6,30-66.6,67.3c0,37.2,30.1,67.2,66.6,67.2c36.9,0,66.7-30,66.7-67.2
				C485.9,30,456.1,0,419.2,0"/>
			<path d="M516.9,57.7h27.6h2.8c1.4,0,2.6,0,4.4-0.2c1.7-0.3,3.4-0.5,5.1-0.9c1.7-0.5,3.3-0.9,4-1.6c0.9-0.4,1.5-0.9,2.6-1.6
				c1-0.8,2-1.8,2.8-3.1c1-1.4,1.7-3,2.4-4.8c0.6-1.9,0.8-4,0.8-6.7c0-5.1-1.1-9-3-11.7c-2-2.6-4.1-4.7-6.6-5.9
				c-2.8-1.3-5.5-2.1-8.4-2.3c-2.8-0.2-5.2-0.3-6.9-0.3h-27.6V57.7z M500.4,3.4h44.7c1.7,0,3.7,0.1,5.8,0.1c2.3,0,4.9,0.3,7.5,0.6
				c2.5,0.3,5.2,0.9,7.9,1.8c2.7,0.8,5.1,2,7.3,3.5c4.9,2.9,8.4,6.7,10.5,11.3c2.2,4.5,3.5,9.3,3.5,14.4c0,4.5-0.6,8.6-2.4,12.5
				c-1.5,3.8-3.5,7.1-6.5,9.9c-2.6,2.8-5.3,4.6-7.7,5.7c-2.8,1.1-5,1.9-7,2.5c3.2,0.8,5.7,1.8,7.8,3c2.3,1.2,4.1,2.7,5.5,4.5
				c1.6,1.8,2.9,4.1,3.8,6.9c1,2.6,1.6,6,2.1,10.1c0.5,3.7,0.8,7.3,1.1,10.5c0.7,3.2,1.1,6.5,1.6,9.5c0.5,3.4,1.4,6.5,2,9.6
				c1,3.2,1.9,6.6,3.2,10.1h-18.5c-0.7-2.2-1.2-4.6-1.8-7.5c-0.7-2.9-1.2-5.8-1.6-8.8c-0.5-3.1-1-6.1-1.3-9c-0.3-3.1-0.6-5.7-1-8.2
				c-0.6-4.5-1.2-8.3-2.3-11.4c-0.8-3.1-2.4-5.4-4.3-7.2c-2-1.8-4.6-3.1-7.9-3.9c-3.3-0.7-7.7-1.1-12.8-1.1h-21.8v57.1h-17.3V3.4z"
				/>
			<path d="M647.5,18.3h0.2l20.1,67.4h-40.1L647.5,18.3z M638.2,3.4l-39.7,126.4h16.2l9.3-30.2h48.2l9,30.2h17.9L658.4,3.4H638.2z"
				/>
			<polygon points="779.4,3.4 779.4,111.5 779.1,111.5 730.4,3.4 707.8,3.4 707.8,129.8 722.1,129.8 722.1,20.3 722.3,20.3 
				771.8,129.8 793.8,129.8 793.8,3.4 			"/>
			<path d="M890.7,35c-0.7-6-3.3-10.7-7.5-14.4c-4.1-3.7-10.3-5.5-18.2-5.5c-5.3,0-10.1,0.9-14.5,2.6c-4.4,1.6-8.1,4.4-11.2,8.2
				c-2.4,2.9-4.4,6.2-6,9.8c-1.6,3.6-2.9,6.9-3.7,10.5c-1.1,3.5-1.6,7.1-1.8,10.6c-0.5,3.5-0.5,6.7-0.5,9.6c0,2.7,0,5.8,0.5,9.2
				c0.2,3.5,0.6,7,1.5,10.7c0.9,3.4,2.1,7,3.2,10.5c1.4,3.4,3.1,6.6,5.1,9.4c1.8,2.3,4,4.3,6.6,5.9c2.2,1.7,4.5,3,7.3,3.9
				c2.4,1,5.1,1.6,7.9,2.1c2.9,0.4,5.6,0.5,8.7,0.5c6.5,0,11.5-0.4,15.8-1.4c4.1-1.2,6.9-2,8.8-2.6V77h-26.1V62.6h41.8v62.3
				c-1.7,0.6-3.8,1.3-6.5,2.3c-2.4,0.9-5.5,1.8-9,2.6c-3.4,0.7-7.2,1.3-11.6,2c-4,0.5-8.5,0.9-13.3,0.9c-10.7,0-19.3-1.6-25.6-4.4
				c-6.7-3-11.8-6.8-15.9-11.3c-5.6-6.3-9.5-13.7-12.2-22.1c-2.3-8.3-3.7-17.1-3.7-26c0-3.2,0.4-7.2,1-12.1c0.5-5,1.6-10.3,3.3-15.8
				c1.5-5.5,4-11,7.4-16.3c2.9-5.4,7.4-10.1,12.8-14.1c2.7-2.2,5.8-3.8,9-5c2.8-1,5.9-1.9,9-2.6c2.7-0.6,5.2-1,7.8-1.1
				c2.3-0.1,4.5-0.2,5.8-0.2c2.3,0,4.7,0.1,7.4,0.3c2.9,0.3,5.7,0.8,8.6,1.8c3.1,0.9,5.9,2.4,8.8,4.2c3,1.8,6,4.1,8.5,7.3
				c1.8,1.9,3.2,3.9,4.3,5.7c1,1.8,1.7,3.7,2.1,5.4c0.6,1.8,0.9,3.4,1,4.9c0.1,1.5,0.4,2.9,0.4,4.1H890.7z"/>
			<polygon points="924.6,3.4 924.6,129.8 999.9,129.8 999.9,114.7 941.9,114.7 941.9,72.4 1000,72.4 1000,57.3 941.9,57.3 
				941.9,18.5 999.6,18.5 999.6,3.4 			"/>
		</g>
	</g>
</g>
</svg>
