<?xml version="1.0" encoding="utf-8"?>
<!-- Generator: Adobe Illustrator 21.0.2, SVG Export Plug-In . SVG Version: 6.00 Build 0)  -->
<svg version="1.1" id="Layer_1" xmlns="http://www.w3.org/2000/svg" xmlns:xlink="http://www.w3.org/1999/xlink" x="0px" y="0px"
	 viewBox="0 0 48.8 47.1" style="enable-background:new 0 0 48.8 47.1;" xml:space="preserve">
<g>
	<path d="M21.7,28.9c-0.5-0.6-1.2-1-1.9-1.2c-0.8-0.2-1.6-0.1-2.4,0.2c-0.2,0.1-0.4,0.2-0.6,0.3c-0.2,0.1-0.4,0.3-0.5,0.4
		c-5.1,4.6-7.4,11.6-5.9,18.4c0.8-1.1,1.9-2,3.2-2.6c0.1-0.1,10-4.6,10-4.7c0,0,0,0,0,0c0,0-1.1-9.2-1.2-9.6c0-0.2-0.1-0.4-0.2-0.5
		C22,29.4,21.9,29.1,21.7,28.9"/>
	<path d="M26.7,29.6C26,29.8,25.4,30.4,25,31c-0.4,0.7-0.6,1.5-0.5,2.3c0,0.2,0.1,0.4,0.1,0.7c0.1,0.2,0.2,0.4,0.3,0.6
		c2.8,6.2,8.9,10.6,15.8,11.2c-0.8-1.1-1.4-2.4-1.5-3.8c0-0.1-1.4-10.9-1.4-10.9c0,0,0,0,0,0c0,0-9.1-1.8-9.5-1.8
		c-0.2,0-0.4,0-0.6,0C27.3,29.4,27,29.4,26.7,29.6"/>
	<path d="M20.8,23.8c0.4-0.7,0.6-1.4,0.6-2.2c-0.1-0.8-0.4-1.6-1-2.2c-0.2-0.2-0.3-0.3-0.5-0.4c-0.2-0.1-0.4-0.2-0.6-0.3
		C13.4,15.2,6,15.2,0,18.7c1.3,0.4,2.5,1.1,3.5,2.2c0.1,0.1,7.5,8,7.5,8c0,0,0,0,0,0c0,0,8.5-3.9,8.8-4.1c0.2-0.1,0.3-0.2,0.4-0.3
		C20.5,24.3,20.7,24,20.8,23.8"/>
	<path d="M25.3,21.4c0.8,0.2,1.6,0.1,2.3-0.2c0.7-0.3,1.4-0.8,1.8-1.6c0.1-0.2,0.2-0.4,0.3-0.6c0.1-0.2,0.1-0.4,0.1-0.7
		c1.4-6.7-0.9-13.8-6.1-18.4c0,1.4-0.3,2.7-1,4c-0.1,0.1-5.3,9.6-5.3,9.6c0,0,0,0,0,0c0,0,6.3,6.8,6.6,7.1c0.1,0.1,0.3,0.2,0.5,0.3
		C24.8,21.2,25,21.3,25.3,21.4"/>
	<path d="M29,25c0,0.8,0.4,1.5,0.8,2.1c0.5,0.6,1.2,1,2.1,1.2c0.2,0,0.4,0.1,0.7,0.1c0.2,0,0.5,0,0.7-0.1
		c6.8-0.8,12.8-5.1,15.6-11.5c-1.3,0.4-2.7,0.6-4.1,0.3c-0.1,0-10.8-2-10.8-2c0,0,0,0,0,0c0,0-4.5,8.1-4.7,8.5
		c-0.1,0.2-0.1,0.4-0.1,0.5C29,24.4,29,24.7,29,25"/>
</g>
</svg>
