<?xml version="1.0" encoding="utf-8"?>
<!-- Generator: Adobe Illustrator 16.0.0, SVG Export Plug-In . SVG Version: 6.00 Build 0)  -->
<!DOCTYPE svg PUBLIC "-//W3C//DTD SVG 1.1//EN" "http://www.w3.org/Graphics/SVG/1.1/DTD/svg11.dtd">
<svg version="1.1" id="Layer_1" xmlns="http://www.w3.org/2000/svg" xmlns:xlink="http://www.w3.org/1999/xlink" x="0px" y="0px"
	 width="2554.12px" height="343.687px" viewBox="0 0 2554.12 343.687" enable-background="new 0 0 2554.12 343.687"
	 xml:space="preserve">
<polygon points="0,10.427 0,332.793 193.851,332.793 193.851,293.144 44.511,293.144 44.511,10.427 "/>
<rect x="246.428" y="10.56" width="44.181" height="322.233"/>
<polygon points="538.64,10.427 480.729,299.374 479.528,299.374 422.287,10.427 343.253,10.427 343.253,332.793 388.036,332.793 
	388.036,35.617 448.078,332.793 512.515,332.793 572.558,35.617 572.558,332.793 617.672,332.793 617.672,10.427 "/>
<polygon points="662.519,10.427 662.519,332.793 856.305,332.793 856.305,294.676 706.7,294.676 706.7,186.556 855.107,186.556 
	855.107,148.138 706.7,148.138 706.7,49.012 856.305,49.012 856.305,10.427 "/>
<g>
	<defs>
		<rect id="SVGID_1_" width="2554.123" height="343.687"/>
	</defs>
	<clipPath id="SVGID_2_">
		<use xlink:href="#SVGID_1_"  overflow="visible"/>
	</clipPath>
	<path clip-path="url(#SVGID_2_)" d="M1070.75,304.805c-72.503,0-131.28-59.442-131.28-132.879
		c0-73.435,58.777-133.044,131.28-133.044c72.833,0,131.61,59.609,131.61,133.044
		C1202.359,245.363,1143.583,304.805,1070.75,304.805 M1070.75,0c-93.363,0-170.196,76.7-170.196,171.926
		c0,95.061,76.833,171.761,170.196,171.761c94.291,0,170.26-76.7,170.26-171.761C1241.009,76.7,1165.041,0,1070.75,0"/>
	<path clip-path="url(#SVGID_2_)" d="M1320.309,147.336h70.371h7.131c3.466,0,6.53,0,11.194-0.464
		c4.333-0.768,8.73-1.402,13.061-2.334c4.333-1.266,8.397-2.333,10.263-4.196c2.201-0.935,3.732-2.201,6.53-4.201
		c2.467-1.999,4.999-4.697,7.199-7.928c2.464-3.6,4.33-7.63,6.196-12.297c1.601-4.831,2.133-10.294,2.133-17.09
		c0-13.095-2.733-22.891-7.731-29.888c-4.995-6.733-10.595-11.996-16.79-14.962c-7.199-3.432-13.996-5.264-21.461-5.896
		c-7.128-0.466-13.392-0.801-17.725-0.801h-70.371V147.336z M1277.994,8.697h114.218c4.333,0,9.331,0.164,14.927,0.297
		c5.933,0,12.463,0.802,19.26,1.566c6.264,0.669,13.396,2.334,20.257,4.534c6.864,2.164,13.064,4.996,18.659,9.028
		c12.464,7.431,21.526,17.094,26.79,28.756c5.596,11.528,8.994,23.654,8.994,36.719c0,11.392-1.532,21.955-6.196,31.884
		c-3.731,9.83-8.997,18.059-16.526,25.391c-6.53,7.029-13.661,11.826-19.592,14.627c-7.131,2.832-12.727,4.831-17.99,6.397
		c8.062,2,14.593,4.664,19.856,7.595c5.93,2.965,10.594,6.831,13.996,11.396c4.063,4.633,7.462,10.395,9.662,17.525
		c2.532,6.699,4.064,15.427,5.33,25.689c1.201,9.332,2.132,18.527,2.797,26.756c1.867,8.23,2.802,16.66,3.999,24.289
		c1.266,8.564,3.467,16.494,4.998,24.59c2.467,8.23,4.931,16.793,8.063,25.856h-47.313c-1.866-5.63-3.064-11.693-4.664-19.193
		c-1.866-7.461-3.132-14.759-3.999-22.389c-1.266-7.795-2.531-15.562-3.398-23.023c-0.664-7.796-1.6-14.463-2.531-20.826
		c-1.532-11.528-3.133-21.323-5.93-29.121c-2.133-7.796-6.199-13.827-10.863-18.491c-4.998-4.698-11.795-7.796-20.26-9.997
		c-8.394-1.665-19.592-2.798-32.652-2.798h-55.709v145.839h-44.182V8.697z"/>
	<path clip-path="url(#SVGID_2_)" d="M1653.904,46.812h0.597l51.312,172.063h-102.356L1653.904,46.812z M1629.98,8.697
		l-101.49,322.896h41.383l23.654-77.068h123.218l23.054,77.068h45.716L1681.626,8.697H1629.98z"/>
	<polygon clip-path="url(#SVGID_2_)" points="1990.56,8.697 1990.56,284.747 1989.963,284.747 1865.479,8.697 1807.903,8.697 
		1807.903,331.593 1844.356,331.593 1844.356,51.81 1844.957,51.81 1971.303,331.593 2027.347,331.593 2027.347,8.697 	"/>
	<path clip-path="url(#SVGID_2_)" d="M2274.976,89.295c-1.798-15.227-8.397-27.356-19.26-36.718
		c-10.595-9.328-26.188-13.995-46.378-13.995c-13.661,0-25.791,2.333-36.985,6.697c-11.263,4.2-20.591,11.228-28.657,20.826
		c-6.195,7.496-11.193,15.858-15.258,24.92c-4.067,9.165-7.465,17.596-9.331,26.924c-2.798,8.997-4.063,18.192-4.664,27.189
		c-1.266,8.861-1.266,17.159-1.266,24.457c0,6.964,0,14.76,1.266,23.49c0.601,8.861,1.532,17.894,3.732,27.388
		c2.196,8.731,5.329,17.893,8.063,26.757c3.466,8.696,7.796,16.794,13.129,23.955c4.664,5.766,10.263,11.03,16.793,14.961
		c5.595,4.33,11.529,7.599,18.656,9.929c6.2,2.501,13.063,4.067,20.192,5.299c7.529,0.931,14.33,1.231,22.126,1.231
		c16.523,0,29.254-1.1,40.448-3.565c10.597-2.965,17.728-5.132,22.393-6.531v-95.859H2213.4v-36.883h106.755v159.032
		c-4.397,1.566-9.662,3.434-16.526,5.767c-6.196,2.331-13.992,4.497-22.989,6.697c-8.731,1.699-18.395,3.398-29.588,5.132
		c-10.265,1.231-21.792,2.33-33.918,2.33c-27.392,0-49.18-4.063-65.372-11.361c-17.06-7.764-30.188-17.424-40.719-28.953
		c-14.325-16.193-24.322-34.986-31.119-56.478c-5.93-21.324-9.396-43.58-9.396-66.439c0-8.097,1-18.36,2.531-30.953
		c1.267-12.894,4.068-26.289,8.396-40.448c3.733-14.163,10.264-28.022,18.995-41.683c7.461-13.696,18.99-25.856,32.651-36.119
		c6.865-5.598,14.927-9.662,23.058-12.893c7.128-2.501,15.193-4.866,22.989-6.732c6.865-1.532,13.395-2.634,19.926-2.767
		c5.93-0.331,11.528-0.464,14.928-0.464c5.93,0,12.125,0.3,18.99,0.764c7.465,0.768,14.66,2.167,22.058,4.5
		c7.797,2.365,14.995,6.098,22.456,10.727c7.732,4.699,15.263,10.465,21.793,18.561c4.664,4.965,8.063,9.929,10.86,14.593
		c2.466,4.664,4.333,9.495,5.265,13.859c1.6,4.534,2.199,8.697,2.535,12.43c0.33,3.766,0.932,7.495,0.932,10.429H2274.976z"/>
	<polygon clip-path="url(#SVGID_2_)" points="2361.471,8.697 2361.471,331.593 2553.793,331.593 2553.793,292.943 2405.654,292.943 
		2405.654,184.854 2554.123,184.854 2554.123,146.405 2405.654,146.405 2405.654,47.279 2553.191,47.279 2553.191,8.697 	"/>
</g>
</svg>
