<?xml version="1.0" encoding="utf-8"?>
<!-- Generator: Adobe Illustrator 21.0.2, SVG Export Plug-In . SVG Version: 6.00 Build 0)  -->
<svg version="1.1" id="레이어_1" xmlns="http://www.w3.org/2000/svg" xmlns:xlink="http://www.w3.org/1999/xlink" x="0px"
	 y="0px" viewBox="0 0 101.8 60.9" style="enable-background:new 0 0 101.8 60.9;" xml:space="preserve">
<g>
	<g>
		<g>
			<path d="M95,0H59.2c-3.6,0-6.6,3-6.6,6.6s3,6.6,6.6,6.6H95c3.6,0,6.6-3,6.6-6.6S98.7,0,95,0z"/>
			<path d="M95,23.8H59.2c-3.6,0-6.6,3-6.6,6.6c0,3.6,3,6.6,6.6,6.6H95c3.6,0,6.6-3,6.6-6.6C101.6,26.8,98.7,23.8,95,23.8z"/>
			<path d="M95.2,47.6H59.3c-3.6,0-6.6,3-6.6,6.6c0,3.6,3,6.6,6.6,6.6h35.9c3.6,0,6.6-3,6.6-6.6C101.8,50.6,98.8,47.6,95.2,47.6z"/>
		</g>
	</g>
	<g>
		<path d="M32.7,35.8c6.8-2.8,11.6-9.4,11.6-17.2C44.3,8.3,36,0,25.7,0L6.6,0C3,0,0,3,0,6.6v47.6c0,3.6,3,6.6,6.6,6.6
			c3.6,0,6.6-3,6.6-6.6V37.1h4.3l14.8,21c2.1,3,6.2,3.7,9.2,1.6c3-2.1,3.7-6.2,1.6-9.2L32.7,35.8z M24.5,25.2H13.2V12h11.3
			c3.6,0,6.6,3,6.6,6.6C31.1,22.2,28.1,25.2,24.5,25.2z"/>
	</g>
</g>
</svg>
